<?xml version="1.0" encoding="UTF-8"?>
<!DOCTYPE svg PUBLIC "-//W3C//DTD SVG 1.1//EN" "http://www.w3.org/Graphics/SVG/1.1/DTD/svg11.dtd">
<!-- Creator: CorelDRAW X8 -->
<svg xmlns="http://www.w3.org/2000/svg" xml:space="preserve" width="152px" height="152px" version="1.1" style="shape-rendering:geometricPrecision; text-rendering:geometricPrecision; image-rendering:optimizeQuality; fill-rule:evenodd; clip-rule:evenodd"
viewBox="0 0 152000 152000"
 xmlns:xlink="http://www.w3.org/1999/xlink">
 <defs>
  <style type="text/css">
   <![CDATA[
    .fil4 {fill:#4D4D4D}
    .fil0 {fill:gray}
    .fil1 {fill:#ABCA27}
    .fil3 {fill:#E6E6E6}
    .fil2 {fill:#F08D0C}
   ]]>
  </style>
 </defs>
 <g id="Слой_x0020_1">
  <metadata id="CorelCorpID_0Corel-Layer"/>
  <circle class="fil0" cx="76000" cy="76000" r="76001"/>
  <circle class="fil1" cx="76000" cy="76000" r="35667"/>
  <g>
   <path class="fil2" d="M79568 49245l8320 4756c0,0 0,410 0,2378 0,1970 -1189,3566 -2378,3566l-19021 0c-1189,0 -2378,-1596 -2378,-3566 0,-1968 0,-2378 0,-2378l8320 -4756 7137 0zm0 0l0 0 0 0z"/>
  </g>
  <path class="fil3" d="M81946 42708c0,4159 -2334,7726 -5945,7726 -3611,0 -5945,-3567 -5945,-7726 0,-4161 1189,-6541 5945,-6541 4756,0 5945,2380 5945,6541z"/>
  <path class="fil4" d="M76001 51920c-4236,0 -7431,-3962 -7431,-9215 0,-3735 844,-8024 7431,-8024 6586,0 7431,4289 7431,8027 0,5250 -3195,9212 -7431,9212l0 0zm0 -14268c-3459,0 -4459,1133 -4459,5053 0,3025 1562,6242 4459,6242 2897,0 4459,-3217 4459,-6242 0,-3918 -1001,-5053 -4459,-5053l0 0z"/>
  <path class="fil4" d="M85513 61432l-19024 0c-2093,0 -3864,-2316 -3864,-5053l0 -3241 9071 -5182 1474 2581 -7571 4327 0 1515c0,1218 647,2022 912,2081l19003 -1c245,-58 891,-862 891,-2080l0 -1515 -7573 -4327 1474 -2581 9071 5182 0 3241c0,2737 -1771,5053 -3864,5053l0 0z"/>
  <g>
   <path class="fil2" d="M56979 89667l8321 4756c0,0 0,409 0,2378 0,1971 -1189,3567 -2378,3567l-19022 0c-1191,0 -2378,-1596 -2378,-3567 0,-1967 0,-2378 0,-2378l8323 -4756 7134 0zm0 0l0 0 0 0z"/>
  </g>
  <path class="fil3" d="M59355 83131c0,4160 -2334,7727 -5945,7727 -3611,0 -5945,-3565 -5945,-7727 0,-4163 1189,-6541 5945,-6541 4756,0 5945,2378 5945,6541z"/>
  <path class="fil4" d="M53412 92342c-4237,0 -7430,-3960 -7430,-9214 0,-3735 844,-8026 7430,-8026 6587,0 7431,4291 7431,8026 0,5254 -3196,9214 -7431,9214l0 0zm0 -14266c-3459,0 -4459,1133 -4459,5052 0,3024 1562,6240 4459,6240 2897,0 4459,-3216 4459,-6240 -2,-3919 -1002,-5052 -4459,-5052l0 0z"/>
  <path class="fil4" d="M62924 101853l-19024 0c-2093,0 -3863,-2311 -3863,-5052l0 -3240 9072 -5184 1474 2581 -7575 4327 0 1516c0,1220 648,2023 912,2083l19002 -2c245,-58 890,-862 890,-2081l0 -1516 -7573 -4327 1474 -2581 9070 5184 0 3240c3,2741 -1766,5052 -3859,5052l0 0z"/>
  <g>
   <path class="fil2" d="M102156 89667l8323 4756c0,0 0,409 0,2378 0,1971 -1189,3567 -2378,3567l-19024 0c-1189,0 -2378,-1596 -2378,-3567 0,-1967 0,-2378 0,-2378l8322 -4756 7135 0zm0 0l0 0 0 0z"/>
  </g>
  <path class="fil3" d="M104534 83131c0,4160 -2334,7727 -5945,7727 -3611,0 -5945,-3565 -5945,-7727 0,-4163 1189,-6541 5945,-6541 4756,0 5945,2378 5945,6541z"/>
  <path class="fil4" d="M98589 92342c-4236,0 -7431,-3960 -7431,-9214 0,-3735 845,-8026 7431,-8026 6587,0 7431,4291 7431,8026 0,5254 -3194,9214 -7431,9214l0 0zm0 -14266c-3458,0 -4459,1133 -4459,5052 0,3024 1564,6240 4459,6240 2896,0 4459,-3216 4459,-6240 0,-3919 -1000,-5052 -4459,-5052l0 0z"/>
  <path class="fil4" d="M108101 101853l-19024 0c-2095,0 -3863,-2313 -3863,-5052l0 -3240 9070 -5184 1474 2581 -7573 4327 0 1516c0,1219 648,2023 913,2083l19002 -2c244,-58 892,-861 892,-2081l0 -1516 -7575 -4327 1473 -2581 9073 5184 0 3240c2,2741 -1768,5052 -3862,5052l0 0z"/>
  <path class="fil4" d="M76001 76887c-820,0 -1486,-666 -1486,-1486l0 -9512c0,-820 666,-1485 1486,-1485 819,0 1486,665 1486,1485l0 9512c0,820 -667,1486 -1486,1486l0 0z"/>
  <path class="fil4" d="M66491 84021c-451,0 -898,-207 -1191,-596 -493,-656 -361,-1588 297,-2079l9512 -7134c660,-493 1589,-357 2081,297 493,657 360,1590 -297,2081l-9512 7134c-268,200 -581,297 -890,297l0 0z"/>
  <path class="fil4" d="M85510 84021c-310,0 -623,-97 -889,-297l-9512 -7134c-658,-491 -790,-1424 -297,-2081 493,-654 1423,-790 2081,-297l9512 7134c657,491 792,1423 297,2079 -293,389 -738,596 -1192,596l0 0z"/>
 </g>
</svg>
