<?xml version="1.0" encoding="UTF-8"?>
<!DOCTYPE svg PUBLIC "-//W3C//DTD SVG 1.1//EN" "http://www.w3.org/Graphics/SVG/1.1/DTD/svg11.dtd">
<!-- Creator: CorelDRAW X8 -->
<svg xmlns="http://www.w3.org/2000/svg" xml:space="preserve" width="152px" height="152px" version="1.1" style="shape-rendering:geometricPrecision; text-rendering:geometricPrecision; image-rendering:optimizeQuality; fill-rule:evenodd; clip-rule:evenodd"
viewBox="0 0 152000 152000"
 xmlns:xlink="http://www.w3.org/1999/xlink">
 <defs>
  <style type="text/css">
   <![CDATA[
    .fil2 {fill:#4D4D4D}
    .fil0 {fill:gray}
    .fil1 {fill:#ABCA27}
    .fil4 {fill:#E6E6E6}
    .fil3 {fill:#F08D0C}
   ]]>
  </style>
 </defs>
 <g id="Слой_x0020_1">
  <metadata id="CorelCorpID_0Corel-Layer"/>
  <circle class="fil0" cx="76000" cy="76000" r="76001"/>
  <path class="fil1" d="M96273 96180l4067 9591 -10173 -357 -6808 7564 -6359 -15978 19273 -820zm0 0z"/>
  <polygon class="fil2" points="82880,115856 77136,102336 80024,101110 83840,110098 89494,103822 97936,104118 94827,96793 97717,95569 102744,107424 90843,107006 "/>
  <path class="fil1" d="M73468 101319l-4707 11659 -6941 -7445 -10164 535 8344 -15069 13468 10320zm0 0z"/>
  <polygon class="fil2" points="69292,115848 61171,107137 49281,107763 54667,94422 57575,95596 54030,104374 62469,103928 68229,110109 72016,100731 74923,101907 "/>
  <path class="fil3" d="M108800 70512c0,1669 -3032,3082 -3288,4678 -257,1640 2191,3915 1689,5463 -511,1573 -3833,1975 -4572,3427 -749,1471 869,4397 -94,5715 -969,1330 -4251,688 -5409,1847 -1160,1157 -520,4440 -1847,5411 -1322,958 -4246,-661 -5714,87 -1452,743 -1854,4062 -3429,4574 -1545,500 -3819,-1945 -5460,-1689 -1600,254 -3011,3288 -4678,3288 -1670,0 -3081,-3034 -4676,-3288 -1641,-259 -3917,2189 -5463,1689 -1574,-512 -1973,-3831 -3424,-4574 -1471,-751 -4393,871 -5716,-92 -1328,-968 -688,-4251 -1847,-5408 -1160,-1161 -4440,-517 -5408,-1848 -965,-1322 656,-4247 -93,-5714 -743,-1452 -4063,-1856 -4574,-3427 -504,-1546 1944,-3823 1689,-5464 -253,-1596 -3287,-3010 -3287,-4678 0,-1667 3031,-3079 3287,-4676 255,-1640 -2193,-3915 -1689,-5459 509,-1573 3829,-1979 4572,-3429 747,-1467 -870,-4392 90,-5715 969,-1328 4252,-688 5411,-1847 1159,-1159 519,-4442 1847,-5409 1323,-962 4246,656 5714,-92 1451,-742 1854,-4063 3426,-4574 1546,-501 3820,1944 5463,1689 1597,-253 3006,-3287 4676,-3287 1669,0 3082,3034 4678,3287 1641,255 3915,-2190 5464,-1686 1573,510 1975,3829 3424,4571 1471,752 4395,-870 5717,92 1328,969 688,4250 1847,5409 1159,1162 4443,521 5407,1847 965,1323 -655,4246 94,5715 743,1450 4063,1853 4572,3427 502,1544 -1944,3821 -1688,5461 257,1598 3289,3011 3289,4679z"/>
  <path class="fil2" d="M75998 104882c-1546,0 -2647,-1145 -3618,-2155 -386,-404 -1038,-1082 -1312,-1153 -338,2 -1102,412 -1661,711 -979,524 -1991,1066 -3098,1066 -325,0 -638,-48 -934,-145 -215,-71 -414,-163 -598,-270 -1063,-623 -1640,-1814 -2157,-2883 -249,-510 -660,-1366 -906,-1519l0 0c-9,0 -967,14 -1785,159 -659,117 -1339,239 -2010,239 -861,0 -1557,-203 -2126,-616 -1233,-899 -1448,-2456 -1637,-3831 -79,-567 -209,-1519 -400,-1738 -213,-185 -1165,-315 -1732,-392 -1375,-190 -2933,-404 -3831,-1636 -896,-1230 -619,-2776 -378,-4143 100,-569 271,-1518 156,-1786 -146,-235 -1004,-649 -1516,-898 -1256,-607 -2679,-1295 -3151,-2756 -469,-1439 271,-2818 922,-4036 276,-517 739,-1379 708,-1669 -70,-260 -748,-913 -1152,-1302 -1010,-973 -2152,-2073 -2152,-3617 0,-1544 1144,-2645 2152,-3614 407,-391 1082,-1042 1155,-1316 28,-277 -435,-1140 -711,-1653 -652,-1220 -1391,-2598 -921,-4040 471,-1455 1894,-2145 3150,-2754 512,-249 1368,-663 1520,-908 111,-257 -60,-1209 -160,-1778 -243,-1364 -518,-2911 376,-4139 900,-1232 2457,-1448 3831,-1636 569,-77 1521,-210 1741,-399 182,-214 314,-1166 391,-1734 191,-1374 406,-2933 1640,-3830 570,-414 1264,-615 2129,-615 671,0 1353,121 2010,236 839,149 1787,159 1791,155 233,-146 647,-1002 894,-1515 606,-1253 1293,-2678 2755,-3151 295,-96 611,-147 936,-147 1104,0 2119,545 3098,1067 557,300 1323,707 1661,707 273,-68 923,-744 1311,-1150 972,-1010 2071,-2155 3619,-2155 1548,0 2647,1145 3615,2153 390,406 1041,1082 1317,1155 335,-3 1100,-412 1657,-710 979,-525 1994,-1067 3099,-1067 326,0 642,48 939,147 1459,475 2147,1898 2755,3151 248,510 660,1366 907,1519l0 0c8,0 964,-15 1784,-159 658,-117 1337,-239 2011,-239 860,0 1557,204 2126,615 1232,900 1448,2457 1636,3832 80,569 209,1521 400,1738 213,185 1167,316 1734,393 1375,191 2933,407 3829,1639 896,1226 622,2772 379,4139 -101,569 -270,1521 -155,1791 146,232 1002,648 1515,895 1255,607 2678,1296 3151,2756 466,1437 -272,2816 -923,4034 -276,514 -738,1379 -707,1669 69,262 745,913 1151,1304 1008,969 2153,2070 2153,3614 0,1545 -1145,2646 -2155,3617 -404,389 -1082,1040 -1153,1316 -27,279 433,1141 711,1657 651,1218 1389,2596 923,4034 -473,1461 -1897,2151 -3153,2756 -511,247 -1364,659 -1517,903 -111,260 58,1216 159,1785 243,1365 517,2909 -379,4137 -900,1234 -2458,1448 -3835,1638 -567,77 -1517,210 -1735,398 -184,213 -316,1168 -393,1735 -190,1374 -404,2931 -1636,3830 -573,415 -1266,614 -2124,614 -674,0 -1354,-122 -2013,-237 -839,-151 -1787,-157 -1791,-157 -236,146 -651,1002 -897,1515 -609,1254 -1295,2676 -2756,3153 -297,97 -611,145 -935,145 -1105,0 -2116,-542 -3097,-1066 -556,-299 -1323,-709 -1659,-709 -276,72 -929,749 -1318,1155 -977,1006 -2075,2151 -3620,2151l0 0zm-4930 -6442c170,0 335,15 499,40 1275,202 2232,1197 3076,2075 397,415 1054,1096 1355,1186 300,-90 956,-771 1352,-1184 845,-880 1804,-1876 3082,-2077 1255,-203 2498,430 3638,1039 517,277 1299,695 1616,695 192,-128 615,-1002 868,-1527 534,-1101 1138,-2350 2297,-2944 992,-509 2442,-375 3766,-138 863,153 1768,157 1773,157 131,-178 263,-1134 342,-1706 168,-1220 359,-2601 1289,-3528 923,-922 2304,-1112 3522,-1282 571,-77 1527,-209 1747,-402 73,-213 -94,-1155 -194,-1717 -214,-1214 -459,-2591 140,-3762 589,-1162 1841,-1767 2944,-2300 523,-253 1395,-676 1544,-927 2,-224 -448,-1061 -716,-1561 -583,-1092 -1247,-2327 -1042,-3634 203,-1278 1199,-2237 2076,-3078 398,-381 1134,-1090 1192,-1378 -60,-244 -768,-923 -1190,-1331 -879,-843 -1875,-1800 -2076,-3076 -207,-1310 457,-2546 1040,-3638 268,-500 718,-1337 695,-1624 -128,-187 -1003,-611 -1526,-865 -1100,-533 -2349,-1136 -2941,-2293 -599,-1174 -356,-2550 -140,-3762 100,-563 267,-1506 156,-1774 -182,-138 -1134,-270 -1705,-347 -1219,-169 -2600,-358 -3527,-1287 -925,-927 -1117,-2306 -1283,-3526 -78,-556 -205,-1478 -390,-1728 -6,0 -96,-13 -267,-13 -398,0 -914,92 -1463,191 -1320,236 -2772,370 -3763,-138 -1162,-594 -1764,-1842 -2298,-2944 -254,-523 -676,-1395 -929,-1544 -262,19 -1015,420 -1561,713 -1136,609 -2375,1237 -3630,1042 -1281,-202 -2237,-1198 -3082,-2076 -408,-424 -1088,-1134 -1379,-1192 -243,61 -925,768 -1332,1192 -844,878 -1801,1874 -3076,2076 -1281,203 -2499,-431 -3639,-1039 -549,-296 -1299,-697 -1619,-697 -191,130 -615,1004 -869,1527 -533,1103 -1136,2350 -2293,2944 -998,508 -2442,372 -3762,140 -866,-155 -1770,-157 -1774,-157 -136,182 -270,1139 -347,1707 -170,1221 -359,2599 -1285,3526 -927,929 -2308,1118 -3526,1287 -571,77 -1527,211 -1745,401 -71,212 96,1156 196,1719 216,1213 461,2588 -135,3759 -594,1162 -1842,1767 -2944,2300 -523,253 -1395,678 -1544,929 -3,226 448,1059 713,1559 586,1090 1247,2326 1042,3632 -202,1282 -1199,2236 -2077,3082 -423,408 -1133,1088 -1191,1377 61,242 768,925 1191,1333 878,843 1875,1801 2075,3075 205,1310 -456,2547 -1040,3635 -268,500 -717,1339 -697,1625 130,187 1005,611 1528,865 1101,533 2350,1138 2944,2297 596,1171 354,2546 135,3759 -100,566 -267,1509 -156,1775 180,138 1136,270 1705,348 1220,166 2601,357 3528,1284 924,925 1117,2306 1283,3526 77,556 204,1477 386,1728 21,2 101,12 270,12l0 0c396,0 914,-94 1463,-190 1320,-237 2770,-371 3766,138 1160,595 1762,1841 2296,2944 253,523 675,1398 928,1546 256,-21 1006,-422 1557,-717 988,-532 2013,-1082 3138,-1082l0 0z"/>
  <path class="fil4" d="M96463 70512c0,11305 -9164,20465 -20465,20465 -11303,0 -20465,-9163 -20465,-20465 0,-11304 9162,-20466 20465,-20466 11303,0 20465,9162 20465,20466z"/>
  <path class="fil2" d="M75998 84465c-7057,0 -12800,-6181 -12800,-13778 0,-7597 5741,-13778 12800,-13778 7060,0 12801,6181 12801,13778 0,7597 -5741,13778 -12801,13778l0 0zm0 -24419c-5329,0 -9664,4772 -9664,10641 0,5869 4335,10641 9664,10641 5330,0 9667,-4772 9667,-10641 -3,-5867 -4337,-10641 -9667,-10641l0 0z"/>
  <path class="fil2" d="M85740 84606c-402,0 -804,-153 -1109,-461l-7136 -7137c-614,-613 -614,-1605 0,-2217 612,-614 1604,-614 2217,0l7137 7136c613,613 613,1605 0,2218 -308,308 -710,461 -1109,461l0 0z"/>
 </g>
</svg>
