<?xml version="1.0" encoding="UTF-8"?>
<!DOCTYPE svg PUBLIC "-//W3C//DTD SVG 1.1//EN" "http://www.w3.org/Graphics/SVG/1.1/DTD/svg11.dtd">
<!-- Creator: CorelDRAW X8 -->
<svg xmlns="http://www.w3.org/2000/svg" xml:space="preserve" width="152px" height="152px" version="1.1" style="shape-rendering:geometricPrecision; text-rendering:geometricPrecision; image-rendering:optimizeQuality; fill-rule:evenodd; clip-rule:evenodd"
viewBox="0 0 152000 152000"
 xmlns:xlink="http://www.w3.org/1999/xlink">
 <defs>
  <style type="text/css">
   <![CDATA[
    .fil2 {fill:#4D4D4D}
    .fil0 {fill:gray}
    .fil4 {fill:#BFC624}
    .fil1 {fill:#CCD1D9}
    .fil3 {fill:#F08D0C}
   ]]>
  </style>
 </defs>
 <g id="Слой_x0020_1">
  <metadata id="CorelCorpID_0Corel-Layer"/>
  <g id="_978030718880">
   <circle class="fil0" cx="76000" cy="76000" r="76001"/>
   <g>
    <path class="fil1" d="M84539 103711c0,4970 -3504,8277 -8476,8277 -4969,0 -8799,-3307 -8799,-8277l17275 0zm0 0l0 0 0 0z"/>
   </g>
   <path class="fil2" d="M76063 113487c-5966,0 -10298,-4111 -10298,-9776 0,-829 673,-1500 1499,-1500 829,0 1500,671 1500,1500 0,3991 3001,6778 7299,6778 4172,0 6976,-2724 6976,-6778 0,-829 672,-1500 1500,-1500 827,0 1500,671 1500,1500 0,5755 -4101,9776 -9976,9776l0 0z"/>
   <path class="fil3" d="M68394 87095l15812 1112 74 15504 -17016 0 1130 -16616zm16145 782z"/>
   <path class="fil2" d="M84539 105211l-17275 0c-826,0 -1499,-672 -1499,-1500l0 -15834c0,-829 673,-1501 1499,-1501 829,0 1500,672 1500,1501l0 14336 14275 -2 0 -14334c0,-829 672,-1501 1500,-1501 827,0 1500,672 1500,1501l0 15836c0,828 -673,1498 -1500,1498l0 0z"/>
   <path class="fil2" d="M58594 45111c-384,0 -767,-146 -1061,-439l-3599 -3599c-587,-587 -587,-1536 0,-2120 586,-586 1534,-586 2119,0l3600 3599c586,587 586,1535 0,2120 -292,293 -675,439 -1059,439l0 0z"/>
   <path class="fil2" d="M94582 45111c-384,0 -768,-146 -1061,-439 -586,-587 -586,-1535 0,-2120l3600 -3601c586,-586 1534,-586 2119,0 586,586 586,1535 0,2120l-3600 3599c-291,295 -674,441 -1058,441l0 0z"/>
   <path class="fil2" d="M54994 88295c-383,0 -767,-145 -1060,-438 -587,-587 -587,-1536 0,-2120l3599 -3599c586,-587 1535,-587 2120,0 586,586 586,1535 0,2120l-3600 3599c-291,293 -674,438 -1059,438l0 0z"/>
   <path class="fil2" d="M98181 88295c-384,0 -767,-145 -1060,-438l-3600 -3599c-586,-587 -586,-1536 0,-2120 586,-587 1535,-587 2119,0l3600 3599c586,587 586,1536 0,2120 -291,293 -675,438 -1059,438l0 0z"/>
   <path class="fil2" d="M48552 64902l-5761 0c-827,0 -1499,-671 -1499,-1499 0,-828 672,-1500 1499,-1500l5761 0c826,0 1499,672 1499,1500 0,828 -673,1499 -1499,1499l0 0z"/>
   <path class="fil2" d="M109210 64902l-5759 0c-828,0 -1500,-671 -1500,-1499 0,-828 672,-1500 1500,-1500l5759 0c826,0 1499,672 1499,1500 0,828 -673,1499 -1499,1499l0 0z"/>
   <path class="fil4" d="M91854 48138c-8430,-8433 -22100,-8433 -30534,0 -8435,8426 -8599,22101 -164,30534 1864,1862 3227,3248 6107,4286l0 6359 17276 0 0 -6359c2878,-1038 4930,-2424 6793,-4286 8435,-8433 8957,-22102 522,-30534z"/>
   <path class="fil2" d="M84539 90817l-17275 0c-826,0 -1499,-671 -1499,-1500l0 -5341c-2519,-1098 -3957,-2535 -5593,-4168 -4430,-4428 -6803,-10232 -6758,-16415 46,-6154 2478,-11949 6846,-16315 4364,-4360 10161,-6761 16329,-6761 6167,0 11965,2401 16326,6761 4341,4340 6650,10152 6504,16364 -146,6123 -2641,11908 -7026,16293 -1902,1903 -3894,3239 -6354,4255l0 5331c0,825 -673,1496 -1500,1496l0 0zm-15775 -3000l14275 0 0 -4859c0,-631 397,-1196 990,-1411 2492,-899 4418,-2113 6243,-3935 3838,-3838 6022,-8896 6148,-14243 127,-5384 -1869,-10418 -5625,-14171 -3794,-3794 -8840,-5884 -14206,-5884 -5367,0 -10413,2090 -14209,5884 -3808,3806 -5929,8856 -5968,14217 -40,5374 2022,10416 5805,14198 1851,1852 3029,3026 5555,3937 595,214 990,777 990,1411l2 4856 0 0z"/>
   <path class="fil2" d="M66409 75081c-384,0 -768,-146 -1061,-439 -3003,-3003 -4656,-6994 -4656,-11237 0,-4243 1653,-8234 4656,-11239 587,-587 1535,-587 2120,0 585,587 585,1535 1,2120 -2438,2437 -3780,5677 -3780,9119 0,3442 1342,6681 3779,9118 585,586 585,1534 0,2119 -292,293 -676,439 -1059,439l0 0z"/>
   <path class="fil2" d="M83284 100601l-14766 0c-828,0 -1499,-671 -1499,-1499 0,-829 671,-1500 1499,-1500l14766 0c826,0 1500,671 1500,1500 0,828 -672,1499 -1500,1499l0 0z"/>
   <path class="fil2" d="M83284 95640l-14766 0c-828,0 -1499,-671 -1499,-1500 0,-828 671,-1499 1499,-1499l14766 0c826,0 1500,671 1500,1499 0,829 -672,1500 -1500,1500l0 0z"/>
  </g>
 </g>
</svg>
