<?xml version="1.0" encoding="UTF-8"?>
<!DOCTYPE svg PUBLIC "-//W3C//DTD SVG 1.1//EN" "http://www.w3.org/Graphics/SVG/1.1/DTD/svg11.dtd">
<!-- Creator: CorelDRAW X8 -->
<svg xmlns="http://www.w3.org/2000/svg" xml:space="preserve" width="152px" height="152px" version="1.1" style="shape-rendering:geometricPrecision; text-rendering:geometricPrecision; image-rendering:optimizeQuality; fill-rule:evenodd; clip-rule:evenodd"
viewBox="0 0 152000 152000"
 xmlns:xlink="http://www.w3.org/1999/xlink">
 <defs>
  <style type="text/css">
   <![CDATA[
    .fil3 {fill:#4D4D4D}
    .fil0 {fill:gray}
    .fil4 {fill:#BDC3C7}
    .fil1 {fill:#F08D0C}
    .fil2 {fill:white}
   ]]>
  </style>
 </defs>
 <g id="Слой_x0020_1">
  <metadata id="CorelCorpID_0Corel-Layer"/>
  <g id="_978030699744">
   <circle class="fil0" cx="76000" cy="76000" r="76001"/>
   <path class="fil1" d="M109352 67433c0,13639 -11056,24696 -24697,24696 -13639,0 -24698,-11057 -24698,-24696 0,-13638 11056,-24695 24696,-24695 13640,0 24699,11059 24699,24695z"/>
   <path class="fil2" d="M102176 67437c0,9677 -7844,17525 -17521,17525 -9677,0 -17520,-7845 -17520,-17525 0,-9677 7845,-17521 17520,-17521 9677,-2 17521,7841 17521,17521z"/>
   <path class="fil3" d="M87886 99647l-6458 -3c-6,0 -10,0 -16,0 -1279,0 -2399,-999 -2543,-2286l-624 -5285c-1480,-389 -2958,-930 -4406,-1619l1403 -2952c1590,757 3213,1308 4824,1643l1152 241 826 6991 5216 3 826 -6996 1152 -241c2651,-549 5183,-1598 7519,-3119l983 -640 5530 4364 3685 -3690 -4363 -5533 646 -982c1502,-2293 2553,-4827 3125,-7532l243 -1148 6985 -821 5 -5209 -6990 -831 -243 -1145c-570,-2697 -1621,-5230 -3123,-7526l-644 -985 4359 -5526 -3685 -3694 -5530 4355 -983 -637c-2321,-1509 -4853,-2560 -7526,-3120l-1150 -240 -826 -6991 -5211 -3 -826 6992 -1149 241c-2667,559 -5201,1611 -7530,3118l-983 637 -5532 -4356 -3682 3687 4363 5535 -645 985c-1508,2298 -2559,4829 -3126,7521l-243 1148 -6989 830 0 5209 6989 822 243 1150c302,1444 796,2908 1506,4477l-2978 1347c-624,-1379 -1102,-2697 -1450,-3998l-5296 -623c-1275,-144 -2279,-1268 -2279,-2559l0 -6443c0,-1300 1011,-2424 2297,-2559l5274 -626c592,-2285 1495,-4456 2694,-6486l-3308 -4196c-802,-989 -719,-2494 202,-3413l4552 -4559c938,-920 2405,-1004 3426,-197l4192 3301c2045,-1199 4214,-2097 6479,-2688l627 -5301c143,-1264 1267,-2265 2559,-2265l6445 0c1269,0 2393,989 2559,2253l628 5320c2268,590 4437,1487 6477,2684l4190 -3302c991,-796 2497,-721 3418,191l4558 4570c916,907 1006,2415 198,3423l-3298 4182c1195,2025 2096,4198 2690,6483l5295 626c1253,131 2265,1249 2278,2540l-4 6462c13,1282 -991,2415 -2285,2559l-5284 620c-594,2289 -1497,4463 -2692,6488l3308 4193c800,989 714,2496 -208,3416l-4550 4559c-910,901 -2410,987 -3416,204l-4198 -3315c-2048,1206 -4220,2109 -6477,2690l-626 5293c-168,1306 -1264,2278 -2551,2287l0 0z"/>
   <path class="fil3" d="M84653 86219c-1418,0 -2844,-163 -4237,-484 -880,-204 -1426,-1082 -1223,-1962 204,-877 1079,-1428 1961,-1224 1152,265 2330,401 3501,401 8554,0 15513,-6959 15513,-15517 0,-8558 -6959,-15520 -15513,-15520 -8555,0 -15516,6962 -15516,15520 0,1036 109,2085 323,3119 184,882 -384,1749 -1268,1933 -890,176 -1748,-384 -1933,-1268 -260,-1251 -393,-2523 -393,-3782 0,-10360 8427,-18789 18787,-18789 10355,0 18781,8429 18781,18789 0,10356 -8427,18784 -18783,18784l0 0z"/>
   <path class="fil4" d="M59351 99185l21029 -21026c4194,1643 9141,777 12533,-2615 3702,-3701 4404,-9263 2100,-13672l-7885 7889 -4959 -4960 7888 -7885c-4408,-2301 -9971,-1602 -13674,2099 -3388,3389 -4256,8341 -2615,12535l-21024 21030c-4199,-1644 -9147,-777 -12535,2611 -3705,3694 -4400,9261 -2103,13672l7889 -7890 4957 4960 -7885 7888c4406,2298 9971,1602 13674,-2105 3385,-3385 4253,-8336 2610,-12531z"/>
   <path class="fil3" d="M48475 116777c0,0 0,0 0,0 -2144,0 -4274,-521 -6166,-1506 -461,-240 -781,-686 -861,-1201 -79,-515 93,-1034 460,-1403l6730 -6732 -2648 -2647 -6731 6734c-367,367 -889,542 -1403,459 -515,-77 -962,-400 -1202,-861 -2706,-5191 -1742,-11456 2394,-15588 2512,-2510 5855,-3893 9412,-3893 1312,0 2600,189 3844,564l19580 -19587c-1403,-4668 -148,-9772 3336,-13256 2516,-2516 5861,-3900 9416,-3900 2143,0 4278,523 6168,1511 461,240 780,688 858,1200 79,515 -90,1037 -459,1404l-6732 6730 2650 2649 6729 -6732c365,-367 882,-540 1403,-459 515,77 959,397 1199,858 2710,5184 1749,11447 -2392,15584 -2514,2516 -5857,3900 -9411,3900 -1311,0 -2600,-189 -3843,-562l-19578 19576c1403,4670 151,9770 -3335,13254 -2514,2516 -5859,3904 -9418,3904l0 0zm-2478 -3576c807,203 1641,309 2478,309l0 0c2685,0 5208,-1045 7107,-2946 2823,-2823 3707,-7053 2249,-10782 -237,-605 -95,-1292 366,-1751l21028 -21026c462,-461 1151,-605 1753,-365 1176,459 2413,693 3680,693 2681,0 5202,-1045 7100,-2941 2566,-2564 3515,-6206 2644,-9591l-6117 6118c-613,613 -1699,613 -2310,0l-4960 -4960c-307,-307 -479,-721 -479,-1157 0,-433 172,-849 479,-1156l6112 -6108c-3394,-864 -7095,142 -9585,2633 -2824,2825 -3707,7060 -2249,10784 236,606 94,1291 -367,1751l-21024 21030c-459,459 -1146,605 -1753,365 -1175,-459 -2415,-693 -3683,-693 -2684,0 -5205,1045 -7101,2939 -2561,2560 -3512,6201 -2641,9592l6117 -6118c306,-307 722,-479 1156,-479l0 0c433,0 849,172 1156,479l4958 4960c637,639 637,1673 0,2310l-6114 6110 0 0z"/>
  </g>
 </g>
</svg>
