<?xml version="1.0" encoding="UTF-8"?>
<!DOCTYPE svg PUBLIC "-//W3C//DTD SVG 1.1//EN" "http://www.w3.org/Graphics/SVG/1.1/DTD/svg11.dtd">
<!-- Creator: CorelDRAW X8 -->
<svg xmlns="http://www.w3.org/2000/svg" xml:space="preserve" width="113px" height="113px" version="1.1" style="shape-rendering:geometricPrecision; text-rendering:geometricPrecision; image-rendering:optimizeQuality; fill-rule:evenodd; clip-rule:evenodd"
viewBox="0 0 113000 113000"
 xmlns:xlink="http://www.w3.org/1999/xlink">
 <defs>
  <style type="text/css">
   <![CDATA[
    .str0 {stroke:black;stroke-width:1574.83}
    .fil2 {fill:none}
    .fil0 {fill:#3765AF}
    .fil3 {fill:white}
    .fil1 {fill:url(#id2)}
    .fil4 {fill:url(#id3)}
   ]]>
  </style>
    <clipPath id="id0">
     <path d="M112965 56501c-2588,16457 -7624,21269 -16542,32325 -8919,9369 -21748,25012 -39922,24139 -16459,-2588 -21270,-7624 -32327,-16542 -9368,-8919 -25011,-21748 -24139,-39922 2589,-16459 7625,-21270 16544,-32327 8918,-9368 21747,-25011 39922,-24139 16458,2589 21269,7625 32325,16543 9369,8918 25012,21748 24139,39923zm-7154 0c-2261,14372 -6658,18574 -14447,28230 -7789,8181 -18991,21841 -34863,21080 -14374,-2261 -18575,-6658 -28231,-14447 -8181,-7789 -21842,-18991 -21080,-34863 2261,-14374 6658,-18575 14447,-28231 7789,-8181 18992,-21842 34864,-21080 14373,2261 18574,6658 28230,14447 8181,7789 21842,18991 21080,34864z"/>
    </clipPath>
    <clipPath id="id1">
     <path d="M58864 62380c1125,0 2082,957 2082,2111 0,1153 -929,2110 -2082,2110 -1126,0 -2082,-957 -2082,-2110 0,-1154 928,-2111 2082,-2111l0 0zm3854 4530l0 -17471 2336 0 0 2475c1125,-1913 2756,-2868 4867,-2868 928,0 1771,167 2531,561 760,394 1351,872 1744,1492 394,619 648,1321 817,2166 112,535 140,1519 140,2870l0 10719 -2588 0 0 -10607c0,-1210 -113,-2110 -310,-2701 -197,-590 -563,-1069 -1069,-1434 -506,-366 -1124,-535 -1828,-535 -1097,0 -2054,422 -2870,1210 -787,788 -1210,2307 -1210,4557l0 9538 -2560 28 0 0zm26868 -5626l2673 393c-422,1801 -1210,3179 -2335,4164 -1153,984 -2616,1491 -4390,1491 -2222,0 -3994,-788 -5317,-2363 -1294,-1575 -1969,-3771 -1969,-6611 0,-2955 675,-5205 1969,-6838 1323,-1603 3039,-2447 5150,-2447 2053,0 3713,788 5007,2391 1294,1604 1941,3827 1941,6697 0,168 0,422 -28,788l-11422 -1c112,1913 562,3376 1435,4417 844,1013 1913,1547 3207,1547 956,0 1772,-281 2447,-843 704,-620 1239,-1548 1632,-2785l0 0zm-8525 -4783l8553 0c-113,-1464 -422,-2561 -984,-3321 -816,-1124 -1885,-1716 -3208,-1716 -1181,0 -2166,450 -3010,1351 -816,928 -1238,2166 -1351,3686l0 0zm20117 7764l393 2617c-732,169 -1378,253 -1941,253 -956,0 -1659,-169 -2166,-507 -507,-337 -873,-787 -1097,-1322 -197,-534 -310,-1715 -310,-3489l0 -10043 -8300 0 0 -2307 8272 0 0 -4333 2588 -1772 0 6105 2617 0 0 2307 -2617 0 0 10184c0,844 57,1379 141,1604 113,226 224,422 422,591 197,141 506,197 872,197 281,28 675,0 1126,-85l0 0zm-77566 -507l-6528 0 -900 3377 -5852 0 6978 -20482 6246 0 6977 20482 -5993 0 -928 -3377 0 0zm-1209 -4416l-2055 -7371 -2025 7371 4080 0 0 0zm5767 1012l5458 -393c140,984 365,1716 731,2223 591,815 1435,1237 2532,1237 817,0 1435,-196 1885,-647 422,-422 676,-927 676,-1463 0,-534 -197,-1013 -648,-1435 -422,-422 -1407,-815 -2926,-1181 -2504,-619 -4304,-1463 -5374,-2475 -1068,-1014 -1603,-2364 -1603,-3940 0,-1041 282,-2053 816,-2982 563,-928 1379,-1660 2476,-2194 1097,-535 2616,-788 4558,-788 2363,0 4191,478 5402,1463 1237,985 1969,2504 2193,4641l-5401 367c-141,-929 -422,-1604 -900,-2026 -451,-422 -1097,-619 -1885,-619 -675,0 -1182,141 -1519,450 -338,309 -507,703 -507,1125 0,338 140,620 422,872 281,282 929,506 1914,732 2504,591 4275,1210 5373,1829 1069,618 1885,1351 2363,2278 479,900 732,1914 732,3039 0,1294 -337,2504 -1013,3629 -676,1097 -1576,1942 -2757,2504 -1182,563 -2673,844 -4474,844 -3150,0 -5345,-675 -6527,-2025 -1126,-1294 -1829,-2982 -1997,-5065l0 0zm16542 -13701l9510 0c2082,0 3629,535 4669,1633 1014,1068 1548,2644 1548,4642 0,2081 -563,3685 -1688,4839 -1125,1153 -2841,1744 -5148,1744l-3124 0 0 7624 -5767 0 0 -20482 0 0zm5739 8722l1408 0c1097,0 1884,-197 2335,-647 422,-422 675,-985 675,-1604 0,-619 -197,-1210 -591,-1631 -394,-423 -1098,-676 -2166,-676l-1633 0 0 4558 -28 0z"/>
    </clipPath>
  <linearGradient id="id2" gradientUnits="userSpaceOnUse" x1="-18969.6" y1="56500.8" x2="131970" y2="56500.8">
   <stop offset="0" style="stop-opacity:1; stop-color:#FE6901"/>
   <stop offset="0.631373" style="stop-opacity:1; stop-color:#B9CF27"/>
   <stop offset="1" style="stop-opacity:1; stop-color:#55A925"/>
  </linearGradient>
  <linearGradient id="id3" gradientUnits="userSpaceOnUse" xlink:href="#id2" x1="-19517.6" y1="55403.1" x2="131422" y2="55403.1">
  </linearGradient>
 </defs>
 <g id="Слой_x0020_1">
  <metadata id="CorelCorpID_0Corel-Layer"/>
  <g id="_977983081888">
   <path class="fil0" d="M112965 56501c-2588,16457 -7624,21269 -16542,32325 -8919,9369 -21748,25012 -39922,24139 -16459,-2588 -21270,-7624 -32327,-16542 -9368,-8919 -25011,-21748 -24139,-39922 2589,-16459 7625,-21270 16544,-32327 8918,-9368 21747,-25011 39922,-24139 16458,2589 21269,7625 32325,16543 9369,8918 25012,21748 24139,39923zm-7154 0c-2261,14372 -6658,18574 -14447,28230 -7789,8181 -18991,21841 -34863,21080 -14374,-2261 -18575,-6658 -28231,-14447 -8181,-7789 -21842,-18991 -21080,-34863 2261,-14374 6658,-18575 14447,-28231 7789,-8181 18992,-21842 34864,-21080 14373,2261 18574,6658 28230,14447 8181,7789 21842,18991 21080,34864z"/>
   <g style="clip-path:url(#id0)">
    <g>
     <ellipse class="fil1 str0" cx="56500" cy="56500" rx="75470" ry="72249"/>
    </g>
   </g>
   <path class="fil2" d="M112965 56501c-2588,16457 -7624,21269 -16542,32325 -8919,9369 -21748,25012 -39922,24139 -16459,-2588 -21270,-7624 -32327,-16542 -9368,-8919 -25011,-21748 -24139,-39922 2589,-16459 7625,-21270 16544,-32327 8918,-9368 21747,-25011 39922,-24139 16458,2589 21269,7625 32325,16543 9369,8918 25012,21748 24139,39923zm-7154 0c-2261,14372 -6658,18574 -14447,28230 -7789,8181 -18991,21841 -34863,21080 -14374,-2261 -18575,-6658 -28231,-14447 -8181,-7789 -21842,-18991 -21080,-34863 2261,-14374 6658,-18575 14447,-28231 7789,-8181 18992,-21842 34864,-21080 14373,2261 18574,6658 28230,14447 8181,7789 21842,18991 21080,34864z"/>
   <path class="fil3" d="M58864 62380c1125,0 2082,957 2082,2111 0,1153 -929,2110 -2082,2110 -1126,0 -2082,-957 -2082,-2110 0,-1154 928,-2111 2082,-2111l0 0zm3854 4530l0 -17471 2336 0 0 2475c1125,-1913 2756,-2868 4867,-2868 928,0 1771,167 2531,561 760,394 1351,872 1744,1492 394,619 648,1321 817,2166 112,535 140,1519 140,2870l0 10719 -2588 0 0 -10607c0,-1210 -113,-2110 -310,-2701 -197,-590 -563,-1069 -1069,-1434 -506,-366 -1124,-535 -1828,-535 -1097,0 -2054,422 -2870,1210 -787,788 -1210,2307 -1210,4557l0 9538 -2560 28 0 0zm26868 -5626l2673 393c-422,1801 -1210,3179 -2335,4164 -1153,984 -2616,1491 -4390,1491 -2222,0 -3994,-788 -5317,-2363 -1294,-1575 -1969,-3771 -1969,-6611 0,-2955 675,-5205 1969,-6838 1323,-1603 3039,-2447 5150,-2447 2053,0 3713,788 5007,2391 1294,1604 1941,3827 1941,6697 0,168 0,422 -28,788l-11422 -1c112,1913 562,3376 1435,4417 844,1013 1913,1547 3207,1547 956,0 1772,-281 2447,-843 704,-620 1239,-1548 1632,-2785l0 0zm-8525 -4783l8553 0c-113,-1464 -422,-2561 -984,-3321 -816,-1124 -1885,-1716 -3208,-1716 -1181,0 -2166,450 -3010,1351 -816,928 -1238,2166 -1351,3686l0 0zm20117 7764l393 2617c-732,169 -1378,253 -1941,253 -956,0 -1659,-169 -2166,-507 -507,-337 -873,-787 -1097,-1322 -197,-534 -310,-1715 -310,-3489l0 -10043 -8300 0 0 -2307 8272 0 0 -4333 2588 -1772 0 6105 2617 0 0 2307 -2617 0 0 10184c0,844 57,1379 141,1604 113,226 224,422 422,591 197,141 506,197 872,197 281,28 675,0 1126,-85l0 0zm-77566 -507l-6528 0 -900 3377 -5852 0 6978 -20482 6246 0 6977 20482 -5993 0 -928 -3377 0 0zm-1209 -4416l-2055 -7371 -2025 7371 4080 0 0 0zm5767 1012l5458 -393c140,984 365,1716 731,2223 591,815 1435,1237 2532,1237 817,0 1435,-196 1885,-647 422,-422 676,-927 676,-1463 0,-534 -197,-1013 -648,-1435 -422,-422 -1407,-815 -2926,-1181 -2504,-619 -4304,-1463 -5374,-2475 -1068,-1014 -1603,-2364 -1603,-3940 0,-1041 282,-2053 816,-2982 563,-928 1379,-1660 2476,-2194 1097,-535 2616,-788 4558,-788 2363,0 4191,478 5402,1463 1237,985 1969,2504 2193,4641l-5401 367c-141,-929 -422,-1604 -900,-2026 -451,-422 -1097,-619 -1885,-619 -675,0 -1182,141 -1519,450 -338,309 -507,703 -507,1125 0,338 140,620 422,872 281,282 929,506 1914,732 2504,591 4275,1210 5373,1829 1069,618 1885,1351 2363,2278 479,900 732,1914 732,3039 0,1294 -337,2504 -1013,3629 -676,1097 -1576,1942 -2757,2504 -1182,563 -2673,844 -4474,844 -3150,0 -5345,-675 -6527,-2025 -1126,-1294 -1829,-2982 -1997,-5065l0 0zm16542 -13701l9510 0c2082,0 3629,535 4669,1633 1014,1068 1548,2644 1548,4642 0,2081 -563,3685 -1688,4839 -1125,1153 -2841,1744 -5148,1744l-3124 0 0 7624 -5767 0 0 -20482 0 0zm5739 8722l1408 0c1097,0 1884,-197 2335,-647 422,-422 675,-985 675,-1604 0,-619 -197,-1210 -591,-1631 -394,-423 -1098,-676 -2166,-676l-1633 0 0 4558 -28 0z"/>
   <g style="clip-path:url(#id1)">
    <g>
     <ellipse class="fil4 str0" cx="55952" cy="55403" rx="75470" ry="72249"/>
    </g>
   </g>
   <path class="fil2" d="M58864 62380c1125,0 2082,957 2082,2111 0,1153 -929,2110 -2082,2110 -1126,0 -2082,-957 -2082,-2110 0,-1154 928,-2111 2082,-2111l0 0zm3854 4530l0 -17471 2336 0 0 2475c1125,-1913 2756,-2868 4867,-2868 928,0 1771,167 2531,561 760,394 1351,872 1744,1492 394,619 648,1321 817,2166 112,535 140,1519 140,2870l0 10719 -2588 0 0 -10607c0,-1210 -113,-2110 -310,-2701 -197,-590 -563,-1069 -1069,-1434 -506,-366 -1124,-535 -1828,-535 -1097,0 -2054,422 -2870,1210 -787,788 -1210,2307 -1210,4557l0 9538 -2560 28 0 0zm26868 -5626l2673 393c-422,1801 -1210,3179 -2335,4164 -1153,984 -2616,1491 -4390,1491 -2222,0 -3994,-788 -5317,-2363 -1294,-1575 -1969,-3771 -1969,-6611 0,-2955 675,-5205 1969,-6838 1323,-1603 3039,-2447 5150,-2447 2053,0 3713,788 5007,2391 1294,1604 1941,3827 1941,6697 0,168 0,422 -28,788l-11422 -1c112,1913 562,3376 1435,4417 844,1013 1913,1547 3207,1547 956,0 1772,-281 2447,-843 704,-620 1239,-1548 1632,-2785l0 0zm-8525 -4783l8553 0c-113,-1464 -422,-2561 -984,-3321 -816,-1124 -1885,-1716 -3208,-1716 -1181,0 -2166,450 -3010,1351 -816,928 -1238,2166 -1351,3686l0 0zm20117 7764l393 2617c-732,169 -1378,253 -1941,253 -956,0 -1659,-169 -2166,-507 -507,-337 -873,-787 -1097,-1322 -197,-534 -310,-1715 -310,-3489l0 -10043 -8300 0 0 -2307 8272 0 0 -4333 2588 -1772 0 6105 2617 0 0 2307 -2617 0 0 10184c0,844 57,1379 141,1604 113,226 224,422 422,591 197,141 506,197 872,197 281,28 675,0 1126,-85l0 0zm-77566 -507l-6528 0 -900 3377 -5852 0 6978 -20482 6246 0 6977 20482 -5993 0 -928 -3377 0 0zm-1209 -4416l-2055 -7371 -2025 7371 4080 0 0 0zm5767 1012l5458 -393c140,984 365,1716 731,2223 591,815 1435,1237 2532,1237 817,0 1435,-196 1885,-647 422,-422 676,-927 676,-1463 0,-534 -197,-1013 -648,-1435 -422,-422 -1407,-815 -2926,-1181 -2504,-619 -4304,-1463 -5374,-2475 -1068,-1014 -1603,-2364 -1603,-3940 0,-1041 282,-2053 816,-2982 563,-928 1379,-1660 2476,-2194 1097,-535 2616,-788 4558,-788 2363,0 4191,478 5402,1463 1237,985 1969,2504 2193,4641l-5401 367c-141,-929 -422,-1604 -900,-2026 -451,-422 -1097,-619 -1885,-619 -675,0 -1182,141 -1519,450 -338,309 -507,703 -507,1125 0,338 140,620 422,872 281,282 929,506 1914,732 2504,591 4275,1210 5373,1829 1069,618 1885,1351 2363,2278 479,900 732,1914 732,3039 0,1294 -337,2504 -1013,3629 -676,1097 -1576,1942 -2757,2504 -1182,563 -2673,844 -4474,844 -3150,0 -5345,-675 -6527,-2025 -1126,-1294 -1829,-2982 -1997,-5065l0 0zm16542 -13701l9510 0c2082,0 3629,535 4669,1633 1014,1068 1548,2644 1548,4642 0,2081 -563,3685 -1688,4839 -1125,1153 -2841,1744 -5148,1744l-3124 0 0 7624 -5767 0 0 -20482 0 0zm5739 8722l1408 0c1097,0 1884,-197 2335,-647 422,-422 675,-985 675,-1604 0,-619 -197,-1210 -591,-1631 -394,-423 -1098,-676 -2166,-676l-1633 0 0 4558 -28 0z"/>
  </g>
 </g>
</svg>
