<?xml version="1.0" encoding="UTF-8"?>
<!DOCTYPE svg PUBLIC "-//W3C//DTD SVG 1.1//EN" "http://www.w3.org/Graphics/SVG/1.1/DTD/svg11.dtd">
<!-- Creator: CorelDRAW X8 -->
<svg xmlns="http://www.w3.org/2000/svg" xml:space="preserve" width="100px" height="114px" version="1.1" style="shape-rendering:geometricPrecision; text-rendering:geometricPrecision; image-rendering:optimizeQuality; fill-rule:evenodd; clip-rule:evenodd"
viewBox="0 0 100000 114000"
 xmlns:xlink="http://www.w3.org/1999/xlink">
 <defs>
  <style type="text/css">
   <![CDATA[
    .str0 {stroke:black;stroke-width:1574.83}
    .fil2 {fill:none}
    .fil0 {fill:#68217A}
    .fil1 {fill:url(#id1)}
   ]]>
  </style>
     <clipPath id="id0">
      <path d="M99013 29030l275 -184c-549,-1007 -1373,-1922 -2197,-2380l-44223 -25453c-733,-458 -1740,-641 -2838,-641 -1099,0 -2106,274 -2839,641l-43948 25544c-1556,916 -2655,3205 -2655,4944l0 50999c0,1007 184,2105 824,3112l-183 92c458,733 1099,1374 1740,1740l44131 25544c732,458 1739,641 2838,641 1099,0 2106,-274 2838,-641l43948 -25544c1557,-916 2656,-3205 2656,-4944l0 -51090c91,-732 0,-1557 -367,-2380zm-48983 64090c-19960,0 -36166,-16205 -36166,-36166 0,-19959 16206,-36165 36166,-36165 13458,0 25178,7416 31404,18312l-11902 6867c-3846,-6867 -11170,-11445 -19502,-11445 -12361,0 -22432,10071 -22432,22431 0,12361 10071,22432 22432,22432 8332,0 15656,-4578 19502,-11353l11810 6959c-6225,10804 -17945,18128 -31312,18128zm46694 -37996l-2930 0 -823 3662 3753 0 0 4578 -4578 0 -1098 5493 -4487 0 1099 -5493 -3479 0 -1099 5493 -4395 0 1099 -5493 -2289 0 0 -4578 3204 0 825 -3662 -4029 0 0 -4578 4852 0 1100 -5494 4485 0 -1098 5494 3480 0 1098 -5494 4395 0 -1099 5494 2014 0 0 4578zm-11627 3662l3478 0 825 -3662 -3480 0 -823 3662z"/>
     </clipPath>
  <linearGradient id="id1" gradientUnits="userSpaceOnUse" x1="-21269.6" y1="57000.1" x2="121271" y2="57000.1">
   <stop offset="0" style="stop-opacity:1; stop-color:#FE6901"/>
   <stop offset="0.631373" style="stop-opacity:1; stop-color:#B9CF27"/>
   <stop offset="1" style="stop-opacity:1; stop-color:#55A925"/>
  </linearGradient>
 </defs>
 <g id="Слой_x0020_1">
  <metadata id="CorelCorpID_0Corel-Layer"/>
  <g id="_978039450976">
   <g>
    <path class="fil0" d="M99013 29030l275 -184c-549,-1007 -1373,-1922 -2197,-2380l-44223 -25453c-733,-458 -1740,-641 -2838,-641 -1099,0 -2106,274 -2839,641l-43948 25544c-1556,916 -2655,3205 -2655,4944l0 50999c0,1007 184,2105 824,3112l-183 92c458,733 1099,1374 1740,1740l44131 25544c732,458 1739,641 2838,641 1099,0 2106,-274 2838,-641l43948 -25544c1557,-916 2656,-3205 2656,-4944l0 -51090c91,-732 0,-1557 -367,-2380zm-48983 64090c-19960,0 -36166,-16205 -36166,-36166 0,-19959 16206,-36165 36166,-36165 13458,0 25178,7416 31404,18312l-11902 6867c-3846,-6867 -11170,-11445 -19502,-11445 -12361,0 -22432,10071 -22432,22431 0,12361 10071,22432 22432,22432 8332,0 15656,-4578 19502,-11353l11810 6959c-6225,10804 -17945,18128 -31312,18128zm46694 -37996l-2930 0 -823 3662 3753 0 0 4578 -4578 0 -1098 5493 -4487 0 1099 -5493 -3479 0 -1099 5493 -4395 0 1099 -5493 -2289 0 0 -4578 3204 0 825 -3662 -4029 0 0 -4578 4852 0 1100 -5494 4485 0 -1098 5494 3480 0 1098 -5494 4395 0 -1099 5494 2014 0 0 4578zm-11627 3662l3478 0 825 -3662 -3480 0 -823 3662z"/>
    <g style="clip-path:url(#id0)">
     <g>
      <ellipse class="fil1 str0" cx="50001" cy="57000" rx="71270" ry="69632"/>
     </g>
    </g>
    <path class="fil2" d="M99013 29030l275 -184c-549,-1007 -1373,-1922 -2197,-2380l-44223 -25453c-733,-458 -1740,-641 -2838,-641 -1099,0 -2106,274 -2839,641l-43948 25544c-1556,916 -2655,3205 -2655,4944l0 50999c0,1007 184,2105 824,3112l-183 92c458,733 1099,1374 1740,1740l44131 25544c732,458 1739,641 2838,641 1099,0 2106,-274 2838,-641l43948 -25544c1557,-916 2656,-3205 2656,-4944l0 -51090c91,-732 0,-1557 -367,-2380zm-48983 64090c-19960,0 -36166,-16205 -36166,-36166 0,-19959 16206,-36165 36166,-36165 13458,0 25178,7416 31404,18312l-11902 6867c-3846,-6867 -11170,-11445 -19502,-11445 -12361,0 -22432,10071 -22432,22431 0,12361 10071,22432 22432,22432 8332,0 15656,-4578 19502,-11353l11810 6959c-6225,10804 -17945,18128 -31312,18128zm46694 -37996l-2930 0 -823 3662 3753 0 0 4578 -4578 0 -1098 5493 -4487 0 1099 -5493 -3479 0 -1099 5493 -4395 0 1099 -5493 -2289 0 0 -4578 3204 0 825 -3662 -4029 0 0 -4578 4852 0 1100 -5494 4485 0 -1098 5494 3480 0 1098 -5494 4395 0 -1099 5494 2014 0 0 4578zm-11627 3662l3478 0 825 -3662 -3480 0 -823 3662z"/>
   </g>
  </g>
 </g>
</svg>
