<?xml version="1.0" encoding="UTF-8"?>
<!DOCTYPE svg PUBLIC "-//W3C//DTD SVG 1.1//EN" "http://www.w3.org/Graphics/SVG/1.1/DTD/svg11.dtd">
<!-- Creator: CorelDRAW X8 -->
<svg xmlns="http://www.w3.org/2000/svg" xml:space="preserve" width="114px" height="110px" version="1.1" style="shape-rendering:geometricPrecision; text-rendering:geometricPrecision; image-rendering:optimizeQuality; fill-rule:evenodd; clip-rule:evenodd"
viewBox="0 0 114000 110000"
 xmlns:xlink="http://www.w3.org/1999/xlink">
 <defs>
  <style type="text/css">
   <![CDATA[
    .str0 {stroke:black;stroke-width:1574.82}
    .fil2 {fill:none}
    .fil0 {fill:#61DAFB}
    .fil1 {fill:url(#id2)}
    .fil3 {fill:url(#id3)}
   ]]>
  </style>
    <clipPath id="id0">
     <path d="M67290 55000c0,-5683 -4606,-10289 -10289,-10289 -5683,0 -10289,4606 -10289,10289 0,5683 4606,10289 10289,10289 5683,0 10289,-4606 10289,-10289z"/>
    </clipPath>
    <clipPath id="id1">
     <path d="M96082 38032c-1985,-722 -4061,-1444 -6227,-2076 541,-2167 992,-4333 1353,-6408 1896,-11914 -180,-20308 -5956,-23557 -1715,-993 -3611,-1444 -5777,-1444 -6318,0 -14351,4693 -22474,12545 -8123,-7852 -16156,-12545 -22475,-12545 -2166,0 -4061,451 -5776,1444 -5776,3339 -7852,11733 -5957,23557 361,2075 813,4241 1354,6408 -2166,632 -4242,1263 -6228,2076 -11282,4332 -17420,10289 -17420,16968 0,6679 6229,12636 17420,16969 1986,722 4062,1444 6228,2075 -541,2167 -993,4333 -1354,6408 -1895,11915 181,20308 5957,23557 1715,993 3610,1444 5776,1444 6409,0 14442,-4693 22475,-12545 8123,7852 16156,12545 22474,12545 2166,0 4062,-451 5777,-1444 5776,-3339 7852,-11733 5956,-23557 -361,-2075 -812,-4241 -1353,-6408 2166,-631 4242,-1263 6227,-2075 11282,-4333 17420,-10290 17420,-16969 0,-6679 -6138,-12636 -17420,-16968zm-13358 -27529c3701,2166 4965,8846 3430,18323 -271,1895 -722,3881 -1264,5956 -4693,-1082 -9657,-1804 -14892,-2256 -3069,-4332 -6228,-8213 -9387,-11733 6679,-6589 13448,-11102 18954,-11102 1173,0 2257,271 3159,812zm-10109 53523c-1624,2888 -3520,5777 -5505,8665 -3340,270 -6679,360 -10109,360 -3520,0 -6860,-90 -10109,-360 -1986,-2888 -3791,-5777 -5416,-8665 -1714,-2979 -3339,-6047 -4783,-9026 1444,-2978 3069,-6047 4783,-9025 1625,-2889 3521,-5777 5507,-8665 3339,-271 6678,-361 10108,-361 3520,0 6859,90 10109,361 1985,2888 3791,5776 5415,8665 1715,2978 3340,6047 4784,9025 -1534,2979 -3069,5957 -4784,9026zm7492 -2979c1353,3159 2437,6228 3430,9296 -3069,723 -6319,1264 -9749,1715 1084,-1715 2257,-3519 3250,-5415 1083,-1895 2076,-3791 3069,-5596zm-23106 24460c-2166,-2347 -4242,-4874 -6228,-7492 2076,91 4152,181 6228,181 2075,0 4152,-90 6227,-181 -1985,2618 -4061,5145 -6227,7492zm-16788 -13538c-3430,-452 -6679,-993 -9748,-1715 993,-2979 2076,-6138 3430,-9297 993,1805 1986,3701 3069,5505 1083,1986 2166,3701 3249,5507zm-6318 -23016c-1354,-3159 -2437,-6228 -3430,-9297 3069,-722 6318,-1263 9748,-1715 -1083,1715 -2257,3521 -3249,5416 -1083,1896 -2076,3791 -3069,5596zm23106 -24460c2166,2347 4242,4874 6227,7492 -2075,-91 -4152,-181 -6227,-181 -2076,0 -4152,90 -6228,181 1986,-2618 4062,-5145 6228,-7492zm20037 18954l-3250 -5415c3430,451 6680,993 9749,1715 -993,2978 -2077,6137 -3430,9296 -993,-1895 -1986,-3790 -3069,-5596zm-49190 -14621c-1535,-9477 -271,-16157 3430,-18323 902,-541 1985,-812 3159,-812 5415,0 12184,4423 18954,11102 -3160,3429 -6319,7401 -9387,11733 -5235,452 -10200,1263 -14893,2256 -541,-2075 -903,-4061 -1263,-5956zm-22294 26174c0,-4242 5145,-8754 14171,-12095 1804,-722 3790,-1353 5776,-1895 1444,4513 3249,9297 5415,14081 -2166,4783 -4061,9476 -5415,13989 -12456,-3610 -19947,-9026 -19947,-14080zm25724 44497c-3701,-2167 -4965,-8845 -3430,-18323 270,-1895 722,-3881 1263,-5956 4693,1083 9658,1805 14893,2256 3068,4333 6227,8213 9387,11734 -6679,6588 -13449,11101 -18954,11101 -1174,0 -2257,-271 -3159,-812zm54876 -18323c1535,9478 271,16156 -3430,18323 -902,541 -1986,812 -3159,812 -5415,0 -12185,-4423 -18954,-11101 3159,-3430 6318,-7401 9387,-11734 5235,-451 10199,-1263 14892,-2256 542,2075 903,4061 1264,5956zm8123 -14079c-1805,722 -3791,1353 -5777,1895 -1444,-4513 -3248,-9296 -5415,-14080 2167,-4784 4062,-9477 5415,-13990 12457,3611 19947,9026 19947,14080 0,4243 -5235,8755 -14170,12095z"/>
    </clipPath>
  <linearGradient id="id2" gradientUnits="userSpaceOnUse" x1="-29449.2" y1="56746.5" x2="141074" y2="56746.5">
   <stop offset="0" style="stop-opacity:1; stop-color:#FE6901"/>
   <stop offset="0.631373" style="stop-opacity:1; stop-color:#B9CF27"/>
   <stop offset="1" style="stop-opacity:1; stop-color:#55A925"/>
  </linearGradient>
  <linearGradient id="id3" gradientUnits="userSpaceOnUse" xlink:href="#id2" x1="-28261" y1="55000.8" x2="142263" y2="55000.8">
  </linearGradient>
 </defs>
 <g id="Слой_x0020_1">
  <metadata id="CorelCorpID_0Corel-Layer"/>
  <g id="_978034967056">
   <path class="fil0" d="M67290 55000c0,-5683 -4606,-10289 -10289,-10289 -5683,0 -10289,4606 -10289,10289 0,5683 4606,10289 10289,10289 5683,0 10289,-4606 10289,-10289z"/>
   <g style="clip-path:url(#id0)">
    <g>
     <ellipse class="fil1 str0" cx="55813" cy="56746" rx="85262" ry="85261"/>
    </g>
   </g>
   <path class="fil2" d="M67290 55000c0,-5683 -4606,-10289 -10289,-10289 -5683,0 -10289,4606 -10289,10289 0,5683 4606,10289 10289,10289 5683,0 10289,-4606 10289,-10289z"/>
   <path class="fil0" d="M96082 38032c-1985,-722 -4061,-1444 -6227,-2076 541,-2167 992,-4333 1353,-6408 1896,-11914 -180,-20308 -5956,-23557 -1715,-993 -3611,-1444 -5777,-1444 -6318,0 -14351,4693 -22474,12545 -8123,-7852 -16156,-12545 -22475,-12545 -2166,0 -4061,451 -5776,1444 -5776,3339 -7852,11733 -5957,23557 361,2075 813,4241 1354,6408 -2166,632 -4242,1263 -6228,2076 -11282,4332 -17420,10289 -17420,16968 0,6679 6229,12636 17420,16969 1986,722 4062,1444 6228,2075 -541,2167 -993,4333 -1354,6408 -1895,11915 181,20308 5957,23557 1715,993 3610,1444 5776,1444 6409,0 14442,-4693 22475,-12545 8123,7852 16156,12545 22474,12545 2166,0 4062,-451 5777,-1444 5776,-3339 7852,-11733 5956,-23557 -361,-2075 -812,-4241 -1353,-6408 2166,-631 4242,-1263 6227,-2075 11282,-4333 17420,-10290 17420,-16969 0,-6679 -6138,-12636 -17420,-16968zm-13358 -27529c3701,2166 4965,8846 3430,18323 -271,1895 -722,3881 -1264,5956 -4693,-1082 -9657,-1804 -14892,-2256 -3069,-4332 -6228,-8213 -9387,-11733 6679,-6589 13448,-11102 18954,-11102 1173,0 2257,271 3159,812zm-10109 53523c-1624,2888 -3520,5777 -5505,8665 -3340,270 -6679,360 -10109,360 -3520,0 -6860,-90 -10109,-360 -1986,-2888 -3791,-5777 -5416,-8665 -1714,-2979 -3339,-6047 -4783,-9026 1444,-2978 3069,-6047 4783,-9025 1625,-2889 3521,-5777 5507,-8665 3339,-271 6678,-361 10108,-361 3520,0 6859,90 10109,361 1985,2888 3791,5776 5415,8665 1715,2978 3340,6047 4784,9025 -1534,2979 -3069,5957 -4784,9026zm7492 -2979c1353,3159 2437,6228 3430,9296 -3069,723 -6319,1264 -9749,1715 1084,-1715 2257,-3519 3250,-5415 1083,-1895 2076,-3791 3069,-5596zm-23106 24460c-2166,-2347 -4242,-4874 -6228,-7492 2076,91 4152,181 6228,181 2075,0 4152,-90 6227,-181 -1985,2618 -4061,5145 -6227,7492zm-16788 -13538c-3430,-452 -6679,-993 -9748,-1715 993,-2979 2076,-6138 3430,-9297 993,1805 1986,3701 3069,5505 1083,1986 2166,3701 3249,5507zm-6318 -23016c-1354,-3159 -2437,-6228 -3430,-9297 3069,-722 6318,-1263 9748,-1715 -1083,1715 -2257,3521 -3249,5416 -1083,1896 -2076,3791 -3069,5596zm23106 -24460c2166,2347 4242,4874 6227,7492 -2075,-91 -4152,-181 -6227,-181 -2076,0 -4152,90 -6228,181 1986,-2618 4062,-5145 6228,-7492zm20037 18954l-3250 -5415c3430,451 6680,993 9749,1715 -993,2978 -2077,6137 -3430,9296 -993,-1895 -1986,-3790 -3069,-5596zm-49190 -14621c-1535,-9477 -271,-16157 3430,-18323 902,-541 1985,-812 3159,-812 5415,0 12184,4423 18954,11102 -3160,3429 -6319,7401 -9387,11733 -5235,452 -10200,1263 -14893,2256 -541,-2075 -903,-4061 -1263,-5956zm-22294 26174c0,-4242 5145,-8754 14171,-12095 1804,-722 3790,-1353 5776,-1895 1444,4513 3249,9297 5415,14081 -2166,4783 -4061,9476 -5415,13989 -12456,-3610 -19947,-9026 -19947,-14080zm25724 44497c-3701,-2167 -4965,-8845 -3430,-18323 270,-1895 722,-3881 1263,-5956 4693,1083 9658,1805 14893,2256 3068,4333 6227,8213 9387,11734 -6679,6588 -13449,11101 -18954,11101 -1174,0 -2257,-271 -3159,-812zm54876 -18323c1535,9478 271,16156 -3430,18323 -902,541 -1986,812 -3159,812 -5415,0 -12185,-4423 -18954,-11101 3159,-3430 6318,-7401 9387,-11734 5235,-451 10199,-1263 14892,-2256 542,2075 903,4061 1264,5956zm8123 -14079c-1805,722 -3791,1353 -5777,1895 -1444,-4513 -3248,-9296 -5415,-14080 2167,-4784 4062,-9477 5415,-13990 12457,3611 19947,9026 19947,14080 0,4243 -5235,8755 -14170,12095z"/>
   <g style="clip-path:url(#id1)">
    <g>
     <ellipse class="fil3 str0" cx="57001" cy="55000" rx="85262" ry="85261"/>
    </g>
   </g>
   <path class="fil2" d="M96082 38032c-1985,-722 -4061,-1444 -6227,-2076 541,-2167 992,-4333 1353,-6408 1896,-11914 -180,-20308 -5956,-23557 -1715,-993 -3611,-1444 -5777,-1444 -6318,0 -14351,4693 -22474,12545 -8123,-7852 -16156,-12545 -22475,-12545 -2166,0 -4061,451 -5776,1444 -5776,3339 -7852,11733 -5957,23557 361,2075 813,4241 1354,6408 -2166,632 -4242,1263 -6228,2076 -11282,4332 -17420,10289 -17420,16968 0,6679 6229,12636 17420,16969 1986,722 4062,1444 6228,2075 -541,2167 -993,4333 -1354,6408 -1895,11915 181,20308 5957,23557 1715,993 3610,1444 5776,1444 6409,0 14442,-4693 22475,-12545 8123,7852 16156,12545 22474,12545 2166,0 4062,-451 5777,-1444 5776,-3339 7852,-11733 5956,-23557 -361,-2075 -812,-4241 -1353,-6408 2166,-631 4242,-1263 6227,-2075 11282,-4333 17420,-10290 17420,-16969 0,-6679 -6138,-12636 -17420,-16968zm-13358 -27529c3701,2166 4965,8846 3430,18323 -271,1895 -722,3881 -1264,5956 -4693,-1082 -9657,-1804 -14892,-2256 -3069,-4332 -6228,-8213 -9387,-11733 6679,-6589 13448,-11102 18954,-11102 1173,0 2257,271 3159,812zm-10109 53523c-1624,2888 -3520,5777 -5505,8665 -3340,270 -6679,360 -10109,360 -3520,0 -6860,-90 -10109,-360 -1986,-2888 -3791,-5777 -5416,-8665 -1714,-2979 -3339,-6047 -4783,-9026 1444,-2978 3069,-6047 4783,-9025 1625,-2889 3521,-5777 5507,-8665 3339,-271 6678,-361 10108,-361 3520,0 6859,90 10109,361 1985,2888 3791,5776 5415,8665 1715,2978 3340,6047 4784,9025 -1534,2979 -3069,5957 -4784,9026zm7492 -2979c1353,3159 2437,6228 3430,9296 -3069,723 -6319,1264 -9749,1715 1084,-1715 2257,-3519 3250,-5415 1083,-1895 2076,-3791 3069,-5596zm-23106 24460c-2166,-2347 -4242,-4874 -6228,-7492 2076,91 4152,181 6228,181 2075,0 4152,-90 6227,-181 -1985,2618 -4061,5145 -6227,7492zm-16788 -13538c-3430,-452 -6679,-993 -9748,-1715 993,-2979 2076,-6138 3430,-9297 993,1805 1986,3701 3069,5505 1083,1986 2166,3701 3249,5507zm-6318 -23016c-1354,-3159 -2437,-6228 -3430,-9297 3069,-722 6318,-1263 9748,-1715 -1083,1715 -2257,3521 -3249,5416 -1083,1896 -2076,3791 -3069,5596zm23106 -24460c2166,2347 4242,4874 6227,7492 -2075,-91 -4152,-181 -6227,-181 -2076,0 -4152,90 -6228,181 1986,-2618 4062,-5145 6228,-7492zm20037 18954l-3250 -5415c3430,451 6680,993 9749,1715 -993,2978 -2077,6137 -3430,9296 -993,-1895 -1986,-3790 -3069,-5596zm-49190 -14621c-1535,-9477 -271,-16157 3430,-18323 902,-541 1985,-812 3159,-812 5415,0 12184,4423 18954,11102 -3160,3429 -6319,7401 -9387,11733 -5235,452 -10200,1263 -14893,2256 -541,-2075 -903,-4061 -1263,-5956zm-22294 26174c0,-4242 5145,-8754 14171,-12095 1804,-722 3790,-1353 5776,-1895 1444,4513 3249,9297 5415,14081 -2166,4783 -4061,9476 -5415,13989 -12456,-3610 -19947,-9026 -19947,-14080zm25724 44497c-3701,-2167 -4965,-8845 -3430,-18323 270,-1895 722,-3881 1263,-5956 4693,1083 9658,1805 14893,2256 3068,4333 6227,8213 9387,11734 -6679,6588 -13449,11101 -18954,11101 -1174,0 -2257,-271 -3159,-812zm54876 -18323c1535,9478 271,16156 -3430,18323 -902,541 -1986,812 -3159,812 -5415,0 -12185,-4423 -18954,-11101 3159,-3430 6318,-7401 9387,-11734 5235,-451 10199,-1263 14892,-2256 542,2075 903,4061 1264,5956zm8123 -14079c-1805,722 -3791,1353 -5777,1895 -1444,-4513 -3248,-9296 -5415,-14080 2167,-4784 4062,-9477 5415,-13990 12457,3611 19947,9026 19947,14080 0,4243 -5235,8755 -14170,12095z"/>
  </g>
 </g>
</svg>
