<?xml version="1.0" encoding="UTF-8"?>
<!DOCTYPE svg PUBLIC "-//W3C//DTD SVG 1.1//EN" "http://www.w3.org/Graphics/SVG/1.1/DTD/svg11.dtd">
<!-- Creator: CorelDRAW X8 -->
<svg xmlns="http://www.w3.org/2000/svg" xml:space="preserve" width="32px" height="38px" version="1.1" style="shape-rendering:geometricPrecision; text-rendering:geometricPrecision; image-rendering:optimizeQuality; fill-rule:evenodd; clip-rule:evenodd"
viewBox="0 0 32000 38000"
 xmlns:xlink="http://www.w3.org/1999/xlink">
 <defs>
  <style type="text/css">
   <![CDATA[
    .fil0 {fill:white;fill-rule:nonzero}
   ]]>
  </style>
 </defs>
 <g id="Слой_x0020_1">
  <metadata id="CorelCorpID_0Corel-Layer"/>
  <g id="_576846565760">
   <path class="fil0" d="M29128 23429c-821,-1711 -5843,-3194 -5843,-3194 -2678,-884 -2599,-1495 -2599,-1495 -4876,5262 -9457,-63 -9457,-63 -365,1311 -5687,2670 -5687,2670 -1581,571 -2251,1426 -2251,1426 -2343,3252 -2617,10496 -2617,10496 31,1653 792,1825 792,1825 5386,2254 13832,2652 13832,2652 8672,172 14988,-2310 14988,-2310 915,-542 942,-968 942,-968 640,-5192 -2100,-11039 -2100,-11039z"/>
   <path class="fil0" d="M15879 18484c6590,0 8406,-10903 5998,-14969 -2411,-4069 -10013,-5091 -12280,1336 -1627,3549 855,13633 6282,13633z"/>
  </g>
 </g>
</svg>
