<?xml version="1.0" encoding="UTF-8"?>
<!DOCTYPE svg PUBLIC "-//W3C//DTD SVG 1.1//EN" "http://www.w3.org/Graphics/SVG/1.1/DTD/svg11.dtd">
<!-- Creator: CorelDRAW X8 -->
<svg xmlns="http://www.w3.org/2000/svg" xml:space="preserve" width="28px" height="38px" version="1.1" style="shape-rendering:geometricPrecision; text-rendering:geometricPrecision; image-rendering:optimizeQuality; fill-rule:evenodd; clip-rule:evenodd"
viewBox="0 0 28000 38001"
 xmlns:xlink="http://www.w3.org/1999/xlink">
 <defs>
  <style type="text/css">
   <![CDATA[
    .fil0 {fill:#B9CF27}
   ]]>
  </style>
 </defs>
 <g id="Слой_x0020_1">
  <metadata id="CorelCorpID_0Corel-Layer"/>
  <g id="_977981699344">
   <path class="fil0" d="M17625 26853c669,0 1208,539 1208,1207 0,667 -539,1209 -1208,1209 -668,0 -1208,-542 -1208,-1209 0,-668 540,-1207 1208,-1207z"/>
   <path class="fil0" d="M12794 29269c667,0 1207,540 1207,1207 0,667 -540,1209 -1207,1209 -670,0 -1209,-542 -1209,-1209 0,-667 539,-1207 1209,-1207z"/>
   <path class="fil0" d="M10377 24436c668,0 1208,541 1208,1209 0,666 -540,1208 -1208,1208 -669,0 -1209,-542 -1209,-1208 0,-668 540,-1209 1209,-1209z"/>
   <polygon class="fil0" points="16595,6095 11406,6095 11406,4661 16595,4661 "/>
   <path class="fil0" d="M14001 37233c-7192,0 -13043,-5850 -13043,-13042 0,-5924 4145,-11361 9731,-12887l0 -5307c-1122,-314 -1946,-1346 -1946,-2565 0,-1469 1195,-2663 2663,-2663l5189 0c1469,0 2664,1194 2664,2663 0,1219 -826,2251 -1948,2565l0 5307c5586,1526 9731,6963 9731,12887 0,7192 -5850,13042 -13041,13042l0 0zm-2595 -35031c-678,0 -1229,552 -1229,1230 0,678 551,1229 1229,1229 396,0 717,320 717,717l0 6487c0,336 -233,626 -562,700 -5227,1163 -9169,6160 -9169,11626 0,6400 5208,11608 11609,11608 6400,0 11608,-5208 11608,-11608 0,-5466 -3943,-10465 -9170,-11626 -329,-74 -562,-364 -562,-700l0 -6487c0,-397 322,-717 718,-717 678,0 1230,-551 1230,-1229 0,-678 -552,-1230 -1230,-1230l-5189 0 0 0z"/>
   <path class="fil0" d="M5826 24001c-396,0 -717,-321 -717,-717 0,-4403 3582,-7984 7985,-7984 396,0 716,321 716,717 0,396 -320,717 -716,717 -3612,0 -6551,2939 -6551,6550 0,396 -321,717 -717,717l0 0z"/>
  </g>
 </g>
</svg>
