<?xml version="1.0" encoding="UTF-8"?>
<!DOCTYPE svg PUBLIC "-//W3C//DTD SVG 1.1//EN" "http://www.w3.org/Graphics/SVG/1.1/DTD/svg11.dtd">
<!-- Creator: CorelDRAW X8 -->
<svg xmlns="http://www.w3.org/2000/svg" xml:space="preserve" width="28px" height="38px" version="1.1" style="shape-rendering:geometricPrecision; text-rendering:geometricPrecision; image-rendering:optimizeQuality; fill-rule:evenodd; clip-rule:evenodd"
viewBox="0 0 28000 38001"
 xmlns:xlink="http://www.w3.org/1999/xlink">
 <defs>
  <style type="text/css">
   <![CDATA[
    .fil0 {fill:#B9CF27}
   ]]>
  </style>
 </defs>
 <g id="Слой_x0020_1">
  <metadata id="CorelCorpID_0Corel-Layer"/>
  <g id="_977975064832">
   <path class="fil0" d="M13483 14821c-285,0 -554,-169 -667,-447 -151,-368 26,-790 393,-940 710,-290 1348,-709 1894,-1244 1099,-1081 1704,-2515 1704,-4039 0,-1525 -605,-2959 -1705,-4039 -2275,-2235 -5978,-2234 -8255,0 -1099,1080 -1704,2514 -1704,4039 0,1524 605,2958 1705,4039 604,596 939,855 1615,1121 370,146 551,565 404,935 -146,370 -563,550 -934,404 -907,-358 -1399,-748 -2096,-1434 -1376,-1353 -2134,-3152 -2134,-5065 0,-1914 758,-3713 2134,-5066 2836,-2781 7445,-2781 10275,0 1377,1353 2135,3152 2135,5065 0,1914 -758,3713 -2134,5066 -682,669 -1475,1191 -2359,1552 -89,36 -181,53 -271,53l0 0z"/>
   <path class="fil0" d="M8391 22837c-398,0 -720,-322 -720,-720l0 -14340c0,-1562 1354,-2882 2957,-2882 1630,0 2957,1279 2957,2850l0 9899c0,397 -323,720 -720,720 -398,0 -720,-323 -720,-720l0 -9899c0,-764 -695,-1410 -1517,-1410 -822,0 -1516,661 -1516,1442l0 14340c0,398 -323,720 -721,720l0 0z"/>
   <path class="fil0" d="M17336 21346c-397,0 -719,-322 -719,-720l0 -3903c0,-781 -695,-1441 -1517,-1441 -821,0 -1515,645 -1515,1409l0 3935c0,398 -323,720 -720,720 -398,0 -720,-322 -720,-720l0 -3935c0,-1571 1326,-2850 2955,-2850 1603,0 2957,1320 2957,2882l0 3903c0,398 -323,720 -721,720l0 0z"/>
   <path class="fil0" d="M21811 22837c-399,0 -721,-322 -721,-720l0 -3902c0,-782 -694,-1442 -1516,-1442 -822,0 -1517,645 -1517,1410l0 3934c0,398 -322,720 -721,720 -397,0 -719,-322 -719,-720l0 -3934c0,-1573 1327,-2851 2957,-2851 1603,0 2956,1320 2956,2883l0 3902c0,398 -322,720 -719,720l0 0z"/>
   <path class="fil0" d="M20637 37001l-8426 0c-3517,0 -6019,-5496 -8227,-10345 -843,-1852 -1639,-3601 -2303,-4536 -823,-1160 -1042,-2950 136,-4127 1160,-1161 3005,-1206 4112,-102 19,19 38,39 55,60l2970 3716c248,311 198,764 -113,1012 -311,247 -764,198 -1012,-112l-2942 -3681c-541,-509 -1471,-455 -2052,125 -607,606 -442,1625 20,2275 744,1048 1529,2774 2440,4772 1826,4011 4326,9503 6916,9503l8250 0c822,-445 5102,-2992 5102,-7787l0 -8067c0,-782 -695,-1443 -1516,-1443 -822,0 -1517,646 -1517,1410l0 3934c0,397 -322,719 -719,719 -399,0 -721,-322 -721,-719l0 -3934c0,-1571 1327,-2850 2957,-2850 1602,0 2956,1320 2956,2883l0 8067c0,6198 -5809,9039 -6057,9158 -96,46 -202,69 -309,69l0 0z"/>
  </g>
 </g>
</svg>
