<?xml version="1.0" encoding="UTF-8"?>
<!DOCTYPE svg PUBLIC "-//W3C//DTD SVG 1.1//EN" "http://www.w3.org/Graphics/SVG/1.1/DTD/svg11.dtd">
<!-- Creator: CorelDRAW X8 -->
<svg xmlns="http://www.w3.org/2000/svg" xml:space="preserve" width="40px" height="31px" version="1.1" style="shape-rendering:geometricPrecision; text-rendering:geometricPrecision; image-rendering:optimizeQuality; fill-rule:evenodd; clip-rule:evenodd"
viewBox="0 0 40000 31000"
 xmlns:xlink="http://www.w3.org/1999/xlink">
 <defs>
  <style type="text/css">
   <![CDATA[
    .fil0 {fill:white}
   ]]>
  </style>
 </defs>
 <g id="Слой_x0020_1">
  <metadata id="CorelCorpID_0Corel-Layer"/>
  <path class="fil0" d="M8738 18258c-1097,904 -2205,1886 -3736,1886 -2565,0 -4645,-2079 -4645,-4644 0,-2565 2080,-4644 4645,-4644 1545,0 2914,755 3758,1915 844,1161 1439,34 1439,34l-94 -11235c-2,-460 376,-836 836,-836l8738 0c1484,0 1763,-138 1146,839 -464,737 -737,1613 -737,2552 0,2640 2140,4781 4781,4781 2642,0 4783,-2141 4783,-4781 0,-968 -289,-1869 -782,-2621 -637,-972 -120,-770 1480,-770l8448 0c459,0 836,380 836,836l0 8797c-143,1641 -14,1907 -907,1259 -787,-571 -1758,-909 -2807,-909 -2642,0 -4783,2141 -4783,4781 0,2641 2141,4783 4783,4783 1173,0 2248,-424 3079,-1125 762,-642 635,191 635,1487l0 8784c0,457 -379,836 -836,836l-8542 0c-1411,0 -2060,205 -1456,-663 537,-774 852,-1713 852,-2725 0,-2641 -2141,-4783 -4783,-4783 -2641,0 -4781,2142 -4781,4783 0,919 259,1779 709,2507 624,1010 386,881 -1118,881l-8738 0c-459,0 -836,-376 -836,-836l0 -10956c0,-461 -1012,-504 -1367,-213z"/>
 </g>
</svg>
