<?xml version="1.0" encoding="UTF-8"?>
<!DOCTYPE svg PUBLIC "-//W3C//DTD SVG 1.1//EN" "http://www.w3.org/Graphics/SVG/1.1/DTD/svg11.dtd">
<!-- Creator: CorelDRAW X8 -->
<svg xmlns="http://www.w3.org/2000/svg" xml:space="preserve" width="38px" height="25px" version="1.1" style="shape-rendering:geometricPrecision; text-rendering:geometricPrecision; image-rendering:optimizeQuality; fill-rule:evenodd; clip-rule:evenodd"
viewBox="0 0 38000 24999"
 xmlns:xlink="http://www.w3.org/1999/xlink">
 <defs>
  <style type="text/css">
   <![CDATA[
    .fil0 {fill:white;fill-rule:nonzero}
   ]]>
  </style>
 </defs>
 <g id="Слой_x0020_1">
  <metadata id="CorelCorpID_0Corel-Layer"/>
  <g id="_576856055328">
   <polygon class="fil0" points="19047,11849 35342,422 3457,422 2751,414 "/>
   <polygon class="fil0" points="468,1465 468,15007 10006,8025 "/>
   <path class="fil0" d="M26261 9435l-6622 4644c-170,121 -382,179 -593,179 -208,0 -415,-58 -593,-179l-6604 -4635 -11085 8274c-92,66 -190,117 -296,151l0 120 26 6596 37013 0 25 -7013 0 -146 -11271 -7991z"/>
   <polygon class="fil0" points="37532,1465 37532,15007 27994,8025 "/>
  </g>
 </g>
</svg>
