<?xml version="1.0" encoding="UTF-8"?>
<!DOCTYPE svg PUBLIC "-//W3C//DTD SVG 1.1//EN" "http://www.w3.org/Graphics/SVG/1.1/DTD/svg11.dtd">
<!-- Creator: CorelDRAW X8 -->
<svg xmlns="http://www.w3.org/2000/svg" xml:space="preserve" width="30px" height="30px" version="1.1" style="shape-rendering:geometricPrecision; text-rendering:geometricPrecision; image-rendering:optimizeQuality; fill-rule:evenodd; clip-rule:evenodd"
viewBox="0 0 30000 30000"
 xmlns:xlink="http://www.w3.org/1999/xlink">
 <defs>
  <style type="text/css">
   <![CDATA[
    .fil0 {fill:#CC3300}
   ]]>
  </style>
 </defs>
 <g id="Слой_x0020_1">
  <metadata id="CorelCorpID_0Corel-Layer"/>
  <path class="fil0" d="M15000 999c7732,0 14001,6269 14001,14001 0,7732 -6269,14001 -14001,14001 -7732,0 -14001,-6269 -14001,-14001 0,-7732 6269,-14001 14001,-14001zm1845 17194l-3624 0 -571 -12318 4765 0 -570 12318zm-4326 3840c0,-612 235,-1111 711,-1504 471,-393 1064,-586 1771,-586 707,0 1295,193 1771,586 471,393 711,892 711,1504 0,609 -240,1112 -711,1504 -476,393 -1064,588 -1771,588 -707,0 -1300,-195 -1771,-588 -476,-392 -711,-895 -711,-1504z"/>
 </g>
</svg>
