<?xml version="1.0" encoding="UTF-8"?>
<!DOCTYPE svg PUBLIC "-//W3C//DTD SVG 1.1//EN" "http://www.w3.org/Graphics/SVG/1.1/DTD/svg11.dtd">
<!-- Creator: CorelDRAW X8 -->
<svg xmlns="http://www.w3.org/2000/svg" xml:space="preserve" width="32px" height="32px" version="1.1" style="shape-rendering:geometricPrecision; text-rendering:geometricPrecision; image-rendering:optimizeQuality; fill-rule:evenodd; clip-rule:evenodd"
viewBox="0 0 32000 32000"
 xmlns:xlink="http://www.w3.org/1999/xlink">
 <defs>
  <style type="text/css">
   <![CDATA[
    .fil0 {fill:white}
   ]]>
  </style>
 </defs>
 <g id="Слой_x0020_1">
  <metadata id="CorelCorpID_0Corel-Layer"/>
  <g id="_499889921472">
   <g>
    <path class="fil0" d="M16000 993c-8287,0 -15006,6719 -15006,15007 0,8287 6719,15006 15006,15006 8287,0 15006,-6719 15006,-15006 0,-8289 -6718,-15007 -15006,-15007zm3880 15005l-2459 2 -3 9004 -3374 0 0 -9004 -2251 0 0 -3103 2251 -2 -4 -1827c0,-2532 687,-4072 3667,-4072l2484 0 0 3104 -1553 0c-1162,0 -1217,434 -1217,1242l-4 1553 2790 0 -327 3103z"/>
   </g>
  </g>
 </g>
</svg>
