<?xml version="1.0" encoding="UTF-8"?>
<!DOCTYPE svg PUBLIC "-//W3C//DTD SVG 1.1//EN" "http://www.w3.org/Graphics/SVG/1.1/DTD/svg11.dtd">
<!-- Creator: CorelDRAW X8 -->
<svg xmlns="http://www.w3.org/2000/svg" xml:space="preserve" width="45px" height="37px" version="1.1" style="shape-rendering:geometricPrecision; text-rendering:geometricPrecision; image-rendering:optimizeQuality; fill-rule:evenodd; clip-rule:evenodd"
viewBox="0 0 45000 37000"
 xmlns:xlink="http://www.w3.org/1999/xlink">
 <defs>
  <style type="text/css">
   <![CDATA[
    .fil0 {fill:white;fill-rule:nonzero}
   ]]>
  </style>
 </defs>
 <g id="Слой_x0020_1">
  <metadata id="CorelCorpID_0Corel-Layer"/>
  <path class="fil0" d="M22870 80l-22867 20141c0,0 1413,2597 4486,0l1883 -1597 0 17285c0,0 -36,1011 947,1011 1222,0 11340,-15 11340,-15l17 -9295c0,0 -155,-1533 1326,-1533l4708 0c1756,0 1647,1533 1647,1533l-17 9262c0,0 9594,0 11102,0 1246,0 1185,-1250 1185,-1250l0 -16821 1474 1321c3557,2567 4895,0 4895,0l-22126 -20042z"/>
 </g>
</svg>
