<?xml version="1.0" encoding="UTF-8"?>
<!DOCTYPE svg PUBLIC "-//W3C//DTD SVG 1.1//EN" "http://www.w3.org/Graphics/SVG/1.1/DTD/svg11.dtd">
<!-- Creator: CorelDRAW X8 -->
<svg xmlns="http://www.w3.org/2000/svg" xml:space="preserve" width="32px" height="32px" version="1.1" style="shape-rendering:geometricPrecision; text-rendering:geometricPrecision; image-rendering:optimizeQuality; fill-rule:evenodd; clip-rule:evenodd"
viewBox="0 0 32000 32000"
 xmlns:xlink="http://www.w3.org/1999/xlink">
 <defs>
  <style type="text/css">
   <![CDATA[
    .fil0 {fill:white}
   ]]>
  </style>
 </defs>
 <g id="Слой_x0020_1">
  <metadata id="CorelCorpID_0Corel-Layer"/>
  <g id="_499888759216">
   <path class="fil0" d="M16000 993c-8287,0 -15006,6719 -15006,15007 0,8287 6719,15006 15006,15006 8287,0 15006,-6719 15006,-15006 0,-8289 -6718,-15007 -15006,-15007zm9379 23708c0,373 -304,677 -677,677l-17404 0c-373,0 -677,-304 -677,-677l0 -17403c0,-373 304,-677 677,-677l17404 0c373,0 677,304 677,677l0 17403zm-13130 -8701c1,2073 1682,3752 3753,3751 2072,-1 3751,-1682 3749,-3753 0,-2072 -1682,-3751 -3753,-3750 -2071,1 -3750,1682 -3749,3754l0 -2zm7502 -7504l3753 0 0 3752 -3753 0 0 -3752zm1830 7504c0,3078 -2504,5581 -5581,5581 -3077,0 -5581,-2503 -5581,-5581 0,-400 47,-561 126,-939l-2049 0 0 8442 15007 0 1 -8442 -2049 0c81,378 126,539 126,939z"/>
  </g>
 </g>
</svg>
