<?xml version="1.0" encoding="UTF-8"?>
<!DOCTYPE svg PUBLIC "-//W3C//DTD SVG 1.1//EN" "http://www.w3.org/Graphics/SVG/1.1/DTD/svg11.dtd">
<!-- Creator: CorelDRAW X8 -->
<svg xmlns="http://www.w3.org/2000/svg" xml:space="preserve" width="30px" height="38px" version="1.1" style="shape-rendering:geometricPrecision; text-rendering:geometricPrecision; image-rendering:optimizeQuality; fill-rule:evenodd; clip-rule:evenodd"
viewBox="0 0 30000 38000"
 xmlns:xlink="http://www.w3.org/1999/xlink">
 <defs>
  <style type="text/css">
   <![CDATA[
    .fil0 {fill:#B9CF27}
   ]]>
  </style>
 </defs>
 <g id="Слой_x0020_1">
  <metadata id="CorelCorpID_0Corel-Layer"/>
  <g id="_977974410000">
   <path class="fil0" d="M15002 37001c-154,0 -308,-49 -437,-147l-7389 -5630c-3967,-3021 -6336,-7803 -6336,-12790l0 -11594c0,-398 323,-720 721,-720 8497,0 12856,-4828 12900,-4876 137,-154 333,-244 540,-244 1,0 1,0 1,0 207,1 405,90 541,246 42,46 4401,4874 12896,4874 398,0 721,322 721,720l0 11594c0,4987 -2368,9768 -6334,12790l-7388 5630c-129,98 -283,147 -436,147l0 0zm-12722 -29452l0 10885c0,4540 2156,8893 5768,11644l6954 5298 6951 -5298c3611,-2751 5767,-7104 5767,-11644l0 -10885c-7080,-210 -11293,-3482 -12718,-4809 -1426,1327 -5642,4600 -12722,4809l0 0z"/>
   <path class="fil0" d="M15002 33784c-154,0 -308,-50 -437,-147l-5838 -4448c-3335,-2543 -5327,-6563 -5327,-10755l0 -9163c0,-369 280,-678 647,-716 4983,-510 8472,-2460 10521,-4008 256,-193 611,-192 867,0 2047,1548 5533,3498 10518,4008 367,38 647,347 647,716l0 9163c0,4192 -1992,8212 -5326,10754l-5836 4448c-129,98 -283,148 -436,148l0 0zm-10162 -23871l0 8521c0,3746 1780,7338 4760,9609l5402 4116 5399 -4116c2980,-2271 4759,-5863 4759,-9609l0 -8521c-4646,-598 -8020,-2371 -10159,-3897 -2140,1526 -5517,3299 -10161,3897l0 0z"/>
   <path class="fil0" d="M13294 24201c-209,0 -409,-91 -546,-252l-3414 -3983c-259,-302 -224,-756 78,-1015 301,-259 756,-225 1015,79l2795 3260 6299 -9449c220,-331 667,-419 998,-199 332,220 421,667 200,998l-6826 10241c-125,186 -331,305 -555,319 -15,0 -29,1 -44,1l0 0z"/>
  </g>
 </g>
</svg>
