<?xml version="1.0" encoding="UTF-8"?>
<!DOCTYPE svg PUBLIC "-//W3C//DTD SVG 1.1//EN" "http://www.w3.org/Graphics/SVG/1.1/DTD/svg11.dtd">
<!-- Creator: CorelDRAW X8 -->
<svg xmlns="http://www.w3.org/2000/svg" xml:space="preserve" width="87px" height="79px" version="1.1" style="shape-rendering:geometricPrecision; text-rendering:geometricPrecision; image-rendering:optimizeQuality; fill-rule:evenodd; clip-rule:evenodd"
viewBox="0 0 87000 79091"
 xmlns:xlink="http://www.w3.org/1999/xlink">
 <defs>
  <style type="text/css">
   <![CDATA[
    .fil0 {fill:#FEFEFE}
   ]]>
  </style>
 </defs>
 <g id="Слой_x0020_1">
  <metadata id="CorelCorpID_0Corel-Layer"/>
  <path class="fil0" d="M83045 46524l-10142 0c-790,3257 -2047,6281 -3768,8979l7165 7165 -9770 9770 -7165 -7165c-2699,1675 -5723,2931 -8887,3675l1 10143 -13958 0 0 -10143c-3164,-744 -6187,-2000 -8886,-3675l-7165 7165 -9862 -9863 7165 -7165c-1676,-2698 -2932,-5722 -3676,-8886l-10142 0 0 -13818 10096 0c744,-3256 2046,-6280 3722,-9025l-7165 -7165 9770 -9770 7164 7165c2698,-1722 5770,-2977 8979,-3769l0 -10142 13958 0 0 10143c3164,744 6187,2000 8886,3675l7165 -7165 9862 9863 -7165 7165c1676,2745 2978,5769 3723,9025l10095 0 0 13818zm-39545 6979c7723,0 13957,-6234 13957,-13958 0,-7723 -6234,-13957 -13957,-13957 -7723,0 -13957,6234 -13957,13957 0,7724 6234,13958 13957,13958z"/>
 </g>
</svg>
