<?xml version="1.0" encoding="UTF-8"?>
<!DOCTYPE svg PUBLIC "-//W3C//DTD SVG 1.1//EN" "http://www.w3.org/Graphics/SVG/1.1/DTD/svg11.dtd">
<!-- Creator: CorelDRAW X8 -->
<svg xmlns="http://www.w3.org/2000/svg" xml:space="preserve" width="37px" height="36px" version="1.1" style="shape-rendering:geometricPrecision; text-rendering:geometricPrecision; image-rendering:optimizeQuality; fill-rule:evenodd; clip-rule:evenodd"
viewBox="0 0 37000 36000"
 xmlns:xlink="http://www.w3.org/1999/xlink">
 <defs>
  <style type="text/css">
   <![CDATA[
    .fil0 {fill:#B9CF27}
   ]]>
  </style>
 </defs>
 <g id="Слой_x0020_1">
  <metadata id="CorelCorpID_0Corel-Layer"/>
  <g id="_977852689056">
   <path class="fil0" d="M7822 35001c-143,0 -286,-44 -408,-132 -248,-177 -353,-494 -261,-783l3785 -11898 -9729 -7567c-237,-184 -331,-499 -233,-783 97,-283 364,-474 664,-474l12413 0 3778 -11875c93,-291 363,-490 669,-490 306,0 577,199 670,490l3778 11875 12413 0c300,0 567,191 665,474 97,284 3,599 -234,783l-9729 7567 3786 11897c92,290 -13,607 -260,784 -248,178 -581,175 -826,-5l-10263 -7560 -10260 7560c-125,91 -271,137 -418,137l0 0zm10678 -9272c146,0 293,45 417,137l8936 6583 -3278 -10301c-90,-280 6,-587 238,-768l8500 -6611 -10879 0c-305,0 -576,-198 -669,-490l-3265 -10261 -3264 10261c-93,292 -364,490 -669,490l-10879 0 8500 6611c232,181 327,488 238,767l-3278 10302 8935 -6583c124,-92 271,-137 417,-137l0 0z"/>
   <polygon class="fil0" points="16493,17427 11475,17427 15489,20436 14487,25455 18500,22445 22515,25455 21511,20436 25525,17427 20508,17427 18500,12010 "/>
  </g>
 </g>
</svg>
