<?xml version="1.0" encoding="UTF-8"?>
<!DOCTYPE svg PUBLIC "-//W3C//DTD SVG 1.1//EN" "http://www.w3.org/Graphics/SVG/1.1/DTD/svg11.dtd">
<!-- Creator: CorelDRAW X8 -->
<svg xmlns="http://www.w3.org/2000/svg" xml:space="preserve" width="32px" height="32px" version="1.1" style="shape-rendering:geometricPrecision; text-rendering:geometricPrecision; image-rendering:optimizeQuality; fill-rule:evenodd; clip-rule:evenodd"
viewBox="0 0 32000 32000"
 xmlns:xlink="http://www.w3.org/1999/xlink">
 <defs>
  <style type="text/css">
   <![CDATA[
    .fil0 {fill:white}
   ]]>
  </style>
 </defs>
 <g id="Слой_x0020_1">
  <metadata id="CorelCorpID_0Corel-Layer"/>
  <path class="fil0" d="M15999 918c8330,0 15082,6752 15082,15082 0,8329 -6752,15081 -15082,15081 -8329,0 -15081,-6752 -15081,-15081 0,-8330 6752,-15082 15081,-15082zm-11016 10547c-145,-621 122,-1122 994,-1066l2761 -49c735,16 743,251 992,655 824,1566 1503,3351 2569,4650 428,413 976,291 1211,-266 177,-1220 140,-2270 73,-3560 -26,-480 -374,-798 -690,-1006 -116,-77 -288,-72 -413,-60 -165,-53 -246,-190 -109,-340 1147,-1227 3777,-1022 5112,-338 421,215 392,667 387,992 -18,1292 -16,2391 0,3682 32,1216 722,1349 1260,751 1112,-1238 1880,-2963 2567,-4481 140,-306 440,-673 825,-679l3584 -48c787,-11 1178,550 787,1308 -861,1677 -2003,3123 -3160,4506 -445,531 -281,972 0,1260 1021,1046 2129,2153 2955,3245 687,910 307,1734 -339,1745l-3246 48c-1005,15 -1390,-323 -1744,-678 -687,-687 -1293,-1459 -2035,-2084 -810,-681 -1337,386 -1369,884 -24,386 -32,572 -36,860 -13,778 -331,1051 -848,1067 -654,-5 -1159,10 -1829,-98 -6193,-993 -7820,-6960 -10259,-10901l0 1z"/>
 </g>
</svg>
